<svg width="264" height="148" viewBox="0 0 264 148" fill="none" xmlns="http://www.w3.org/2000/svg">
<path d="M43.1082 -26.6838L19.9691 -13.3244L31.6097 6.83771L54.7488 -6.52166L43.1082 -26.6838ZM41.4285 -29.5931C42.1953 -30.0358 43.0186 -30.1202 43.8984 -29.8464C44.7973 -29.6437 45.4811 -29.1363 45.9499 -28.3244L57.5905 -8.16229C58.0592 -7.35039 58.1697 -6.48198 57.9219 -5.55707C57.6931 -4.70331 57.1953 -4.05507 56.4285 -3.61236L33.2894 9.74702C32.5226 10.1897 31.6898 10.3097 30.7909 10.107C29.9111 9.83312 29.2368 9.29024 28.7681 8.47834L17.1275 -11.6838C16.6587 -12.4957 16.5387 -13.3285 16.7675 -14.1823C17.0153 -15.1072 17.5226 -15.791 18.2894 -16.2337L41.4285 -29.5931ZM48.5192 -10.5929L50.1989 -7.68362L32.8784 2.31638L31.1987 -0.592926L48.5192 -10.5929ZM30.27 -15.4828L35.27 -6.82254L29.519 -3.50223L24.519 -12.1625L30.27 -15.4828ZM34.859 -14.2532L33.1793 -17.1625L41.8395 -22.1625L43.5192 -19.2532L34.859 -14.2532ZM45.1989 -16.3439L46.8395 -13.5022L38.1793 -8.50223L36.5387 -11.3439L45.1989 -16.3439Z" fill="#F3F5B0"/>
<path d="M13.8262 82.5982L-9.31293 95.9576L2.32769 116.12L25.4668 102.76L13.8262 82.5982ZM12.1465 79.6889C12.9133 79.2462 13.7366 79.1618 14.6164 79.4357C15.5153 79.6384 16.1991 80.1457 16.6678 80.9576L28.3085 101.12C28.7772 101.932 28.8877 102.8 28.6398 103.725C28.4111 104.579 27.9133 105.227 27.1465 105.67L4.00738 119.029C3.24058 119.472 2.40775 119.592 1.50888 119.389C0.629073 119.115 -0.0452057 118.572 -0.513956 117.76L-12.1546 97.5982C-12.6233 96.7863 -12.7433 95.9535 -12.5146 95.0997C-12.2667 94.1748 -11.7594 93.491 -10.9926 93.0483L12.1465 79.6889ZM19.2372 98.6891L20.9169 101.598L3.59637 111.598L1.91668 108.689L19.2372 98.6891ZM0.987944 93.7992L5.98794 102.46L0.236994 105.78L-4.76301 97.1196L0.987944 93.7992ZM5.57694 95.0289L3.89725 92.1196L12.5575 87.1196L14.2372 90.0289L5.57694 95.0289ZM15.9169 92.9382L17.5575 95.7798L8.89725 100.78L7.25662 97.9382L15.9169 92.9382Z" fill="#F3F5B0"/>
<path d="M83.1082 42.5982L59.9691 55.9576L71.6097 76.1197L94.7488 62.7604L83.1082 42.5982ZM81.4285 39.6889C82.1953 39.2462 83.0186 39.1618 83.8984 39.4357C84.7973 39.6384 85.4811 40.1457 85.9499 40.9576L97.5905 61.1197C98.0592 61.9316 98.1697 62.8 97.9219 63.725C97.6931 64.5787 97.1953 65.227 96.4285 65.6697L73.2894 79.029C72.5226 79.4718 71.6898 79.5917 70.7909 79.389C69.9111 79.1151 69.2368 78.5723 68.7681 77.7604L57.1275 57.5982C56.6587 56.7863 56.5387 55.9535 56.7675 55.0997C57.0153 54.1748 57.5226 53.491 58.2894 53.0483L81.4285 39.6889ZM88.5192 58.6891L90.1989 61.5984L72.8784 71.5984L71.1987 68.6891L88.5192 58.6891ZM70.27 53.7992L75.27 62.4595L69.519 65.7798L64.519 57.1195L70.27 53.7992ZM74.859 55.0288L73.1793 52.1195L81.8395 47.1195L83.5192 50.0288L74.859 55.0288ZM85.1989 52.9382L86.8395 55.7798L78.1793 60.7798L76.5387 57.9382L85.1989 52.9382Z" fill="#F3F5B0"/>
<path d="M152.39 2.59821L129.251 15.9576L140.892 36.1197L164.031 22.7604L152.39 2.59821ZM150.711 -0.311093C151.477 -0.753801 152.301 -0.83822 153.18 -0.564349C154.079 -0.361624 154.763 0.145687 155.232 0.957586L166.873 21.1197C167.341 21.9316 167.452 22.8 167.204 23.725C166.975 24.5787 166.477 25.227 165.711 25.6697L142.571 39.029C141.805 39.4718 140.972 39.5917 140.073 39.389C139.193 39.1151 138.519 38.5723 138.05 37.7604L126.409 17.5982C125.941 16.7863 125.821 15.9535 126.05 15.0997C126.297 14.1748 126.805 13.491 127.571 13.0483L150.711 -0.311093ZM157.801 18.6891L159.481 21.5984L142.16 31.5984L140.481 28.6891L157.801 18.6891ZM139.552 13.7992L144.552 22.4595L138.801 25.7798L133.801 17.1195L139.552 13.7992ZM144.141 15.0288L142.461 12.1195L151.122 7.11954L152.801 10.0288L144.141 15.0288ZM154.481 12.9382L156.122 15.7798L147.461 20.7798L145.821 17.9382L154.481 12.9382Z" fill="#F3F5B0"/>
<path d="M221.672 -37.4018L198.533 -24.0424L210.174 -3.88026L233.313 -17.2396L221.672 -37.4018ZM219.993 -40.3111C220.759 -40.7538 221.583 -40.8382 222.462 -40.5643C223.361 -40.3616 224.045 -39.8543 224.514 -39.0424L236.155 -18.8803C236.623 -18.0684 236.734 -17.2 236.486 -16.275C236.257 -15.4213 235.759 -14.773 234.993 -14.3303L211.853 -0.970957C211.087 -0.528248 210.254 -0.408256 209.355 -0.61098C208.475 -0.884852 207.801 -1.42774 207.332 -2.23964L195.692 -22.4018C195.223 -23.2137 195.103 -24.0465 195.332 -24.9003C195.579 -25.8252 196.087 -26.509 196.853 -26.9517L219.993 -40.3111ZM227.083 -21.3109L228.763 -18.4016L211.442 -8.40159L209.763 -11.3109L227.083 -21.3109ZM208.834 -26.2008L213.834 -17.5405L208.083 -14.2202L203.083 -22.8805L208.834 -26.2008ZM213.423 -24.9712L211.743 -27.8805L220.404 -32.8805L222.083 -29.9712L213.423 -24.9712ZM223.763 -27.0618L225.404 -24.2202L216.743 -19.2202L215.103 -22.0618L223.763 -27.0618Z" fill="#F3F5B0"/>
<path d="M53.8262 151.88L30.6871 165.24L42.3277 185.402L65.4668 172.042L53.8262 151.88ZM52.1465 148.971C52.9133 148.528 53.7366 148.444 54.6164 148.718C55.5153 148.92 56.1991 149.428 56.6678 150.24L68.3084 170.402C68.7772 171.214 68.8877 172.082 68.6398 173.007C68.4111 173.861 67.9133 174.509 67.1465 174.952L44.0074 188.311C43.2406 188.754 42.4077 188.874 41.5089 188.671C40.6291 188.397 39.9548 187.854 39.486 187.042L27.8454 166.88C27.3767 166.068 27.2567 165.236 27.4854 164.382C27.7333 163.457 28.2406 162.773 29.0074 162.33L52.1465 148.971ZM59.2372 167.971L60.9169 170.88L43.5964 180.88L41.9167 177.971L59.2372 167.971ZM40.9879 163.081L45.9879 171.742L40.237 175.062L35.237 166.402L40.9879 163.081ZM45.5769 164.311L43.8972 161.402L52.5575 156.402L54.2372 159.311L45.5769 164.311ZM55.9169 162.22L57.5575 165.062L48.8972 170.062L47.2566 167.22L55.9169 162.22Z" fill="#F3F5B0"/>
<path d="M123.108 111.88L99.9691 125.24L111.61 145.402L134.749 132.042L123.108 111.88ZM121.429 108.971C122.195 108.528 123.019 108.444 123.898 108.718C124.797 108.92 125.481 109.428 125.95 110.24L137.59 130.402C138.059 131.214 138.17 132.082 137.922 133.007C137.693 133.861 137.195 134.509 136.429 134.952L113.289 148.311C112.523 148.754 111.69 148.874 110.791 148.671C109.911 148.397 109.237 147.854 108.768 147.042L97.1274 126.88C96.6587 126.068 96.5387 125.236 96.7675 124.382C97.0153 123.457 97.5226 122.773 98.2894 122.33L121.429 108.971ZM128.519 127.971L130.199 130.88L112.878 140.88L111.199 137.971L128.519 127.971ZM110.27 123.081L115.27 131.742L109.519 135.062L104.519 126.402L110.27 123.081ZM114.859 124.311L113.179 121.402L121.84 116.402L123.519 119.311L114.859 124.311ZM125.199 122.22L126.84 125.062L118.179 130.062L116.539 127.22L125.199 122.22Z" fill="#F3F5B0"/>
<path d="M192.39 71.8803L169.251 85.2396L180.892 105.402L204.031 92.0424L192.39 71.8803ZM190.711 68.971C191.477 68.5282 192.301 68.4438 193.18 68.7177C194.079 68.9204 194.763 69.4277 195.232 70.2396L206.873 90.4018C207.341 91.2137 207.452 92.0821 207.204 93.007C206.975 93.8608 206.477 94.509 205.711 94.9517L182.571 108.311C181.805 108.754 180.972 108.874 180.073 108.671C179.193 108.397 178.519 107.854 178.05 107.042L166.409 86.8803C165.941 86.0684 165.821 85.2355 166.05 84.3818C166.297 83.4568 166.805 82.773 167.571 82.3303L190.711 68.971ZM197.801 87.9711L199.481 90.8804L182.16 100.88L180.481 97.9711L197.801 87.9711ZM179.552 83.0813L184.552 91.7415L178.801 95.0618L173.801 86.4016L179.552 83.0813ZM184.141 84.3109L182.461 81.4016L191.122 76.4016L192.801 79.3109L184.141 84.3109ZM194.481 82.2202L196.122 85.0618L187.461 90.0618L185.821 87.2202L194.481 82.2202Z" fill="#F3F5B0"/>
<path d="M261.672 31.8803L238.533 45.2396L250.174 65.4018L273.313 52.0424L261.672 31.8803ZM259.993 28.971C260.759 28.5282 261.583 28.4438 262.462 28.7177C263.361 28.9204 264.045 29.4277 264.514 30.2396L276.155 50.4018C276.623 51.2137 276.734 52.0821 276.486 53.007C276.257 53.8608 275.759 54.509 274.993 54.9517L251.853 68.3111C251.087 68.7538 250.254 68.8738 249.355 68.6711C248.475 68.3972 247.801 67.8543 247.332 67.0424L235.692 46.8803C235.223 46.0684 235.103 45.2355 235.332 44.3818C235.579 43.4568 236.087 42.773 236.853 42.3303L259.993 28.971ZM267.083 47.9711L268.763 50.8804L251.442 60.8804L249.763 57.9711L267.083 47.9711ZM248.834 43.0813L253.834 51.7415L248.083 55.0618L243.083 46.4016L248.834 43.0813ZM253.423 44.3109L251.743 41.4016L260.404 36.4016L262.083 39.3109L253.423 44.3109ZM263.763 42.2202L265.404 45.0618L256.743 50.0618L255.103 47.2202L263.763 42.2202Z" fill="#F3F5B0"/>
<path d="M232.39 141.162L209.251 154.522L220.892 174.684L244.031 161.324L232.39 141.162ZM230.711 138.253C231.477 137.81 232.301 137.726 233.18 138C234.079 138.202 234.763 138.71 235.232 139.522L246.873 159.684C247.341 160.496 247.452 161.364 247.204 162.289C246.975 163.143 246.477 163.791 245.711 164.234L222.571 177.593C221.805 178.036 220.972 178.156 220.073 177.953C219.193 177.679 218.519 177.136 218.05 176.324L206.409 156.162C205.941 155.35 205.821 154.518 206.05 153.664C206.297 152.739 206.805 152.055 207.571 151.612L230.711 138.253ZM237.801 157.253L239.481 160.162L222.16 170.162L220.481 167.253L237.801 157.253ZM219.552 152.363L224.552 161.024L218.801 164.344L213.801 155.684L219.552 152.363ZM224.141 153.593L222.461 150.684L231.122 145.684L232.801 148.593L224.141 153.593ZM234.481 151.502L236.122 154.344L227.461 159.344L225.821 156.502L234.481 151.502Z" fill="#F3F5B0"/>
</svg>
