<svg width="264" height="148" viewBox="0 0 264 148" fill="none" xmlns="http://www.w3.org/2000/svg">
<path d="M38.2603 -31.6431L47.8697 -14.9991L44.448 -4.36331L35.2683 -20.263L38.2603 -31.6431ZM44.529 -27.5041C45.9101 -27.8204 47.1533 -27.9067 48.2586 -27.763L60.4071 -6.72128C60.5112 -6.54086 60.5252 -6.30836 60.4489 -6.02377C60.3918 -5.81033 60.273 -5.65152 60.0925 -5.54736C59.9572 -5.46923 59.8314 -5.42668 59.7152 -5.4197C57.2478 -5.31827 54.661 -4.48631 51.9547 -2.92381C50.7368 -2.22068 49.4557 -1.21042 48.1114 0.106991C46.8122 1.39836 45.8713 2.63322 45.2886 3.81157C43.8536 3.61769 42.2877 3.77002 40.5909 4.26855C39.1456 4.68198 37.6562 5.3314 36.1226 6.21682C35.0401 6.84182 33.9585 7.67677 32.8778 8.72168C31.7711 9.72147 30.8518 10.7334 30.1199 11.7573L29.8207 12.0203C29.6403 12.1245 29.4208 12.161 29.1622 12.1298C28.9488 12.0726 28.79 11.9538 28.6858 11.7734L16.4593 -9.40362C17.0089 -10.7433 17.9238 -12.0233 19.2039 -13.2435C20.3297 -14.3145 21.6594 -15.2926 23.1929 -16.1781C24.7265 -17.0635 26.2159 -17.7129 27.6612 -18.1263C29.358 -18.6249 30.9239 -18.7772 32.359 -18.5833L43.609 0.902264C44.2176 -0.230982 45.1716 -1.44329 46.4708 -2.73465C47.7891 -4.09717 49.0571 -5.12999 50.275 -5.83311C52.1243 -6.90082 53.959 -7.6293 55.779 -8.01856L44.529 -27.5041ZM39.8012 1.02581L30.3872 -15.2798C28.6954 -15.0849 26.8573 -14.4146 24.8726 -13.2688C22.888 -12.1229 21.3658 -10.8532 20.3061 -9.45951L29.7983 6.98144C31.3611 5.41757 32.9094 4.19293 34.4429 3.30751C36.2472 2.26585 38.0333 1.50528 39.8012 1.02581Z" fill="#B0F3FE"/>
<path d="M8.97831 77.639L18.5877 94.2829L15.1659 104.919L5.98622 89.019L8.97831 77.639ZM15.247 81.7779C16.6281 81.4617 17.8713 81.3754 18.9766 81.519L31.125 102.561C31.2292 102.741 31.2432 102.974 31.1669 103.258C31.1097 103.472 30.9909 103.631 30.8105 103.735C30.6752 103.813 30.5494 103.855 30.4331 103.862C27.9658 103.964 25.3789 104.796 22.6726 106.358C21.4548 107.061 20.1737 108.072 18.8294 109.389C17.5302 110.68 16.5892 111.915 16.0066 113.094C14.5716 112.9 13.0057 113.052 11.3088 113.551C9.86359 113.964 8.37418 114.613 6.84059 115.499C5.75806 116.124 4.67646 116.959 3.5958 118.004C2.4891 119.004 1.56979 120.015 0.837888 121.039L0.53866 121.302C0.358238 121.407 0.138753 121.443 -0.119794 121.412C-0.333235 121.355 -0.492039 121.236 -0.596206 121.055L-12.8228 99.8784C-12.2732 98.5387 -11.3583 97.2587 -10.0781 96.0385C-8.95236 94.9676 -7.62268 93.9894 -6.0891 93.104C-4.55551 92.2186 -3.06609 91.5691 -1.62085 91.1557C0.0759656 90.6572 1.64189 90.5049 3.07692 90.6987L14.3269 110.184C14.9356 109.051 15.8895 107.839 17.1887 106.547C18.507 105.185 19.7751 104.152 20.9929 103.449C22.8423 102.381 24.6769 101.653 26.497 101.263L15.247 81.7779ZM10.5192 110.308L1.10511 94.0022C-0.586594 94.1971 -2.42477 94.8675 -4.40941 96.0133C-6.39405 97.1591 -7.91624 98.4289 -8.97596 99.8225L0.516223 116.263C2.07909 114.7 3.62732 113.475 5.1609 112.59C6.96512 111.548 8.75121 110.787 10.5192 110.308Z" fill="#B0F3FE"/>
<path d="M78.2603 37.639L87.8697 54.2829L84.448 64.9187L75.2683 49.019L78.2603 37.639ZM84.529 41.7779C85.9101 41.4617 87.1533 41.3754 88.2586 41.519L100.407 62.5607C100.511 62.7412 100.525 62.9737 100.449 63.2583C100.392 63.4717 100.273 63.6305 100.093 63.7347C99.9572 63.8128 99.8314 63.8553 99.7152 63.8623C97.2478 63.9638 94.661 64.7957 91.9547 66.3582C90.7368 67.0613 89.4557 68.0716 88.1114 69.389C86.8122 70.6804 85.8713 71.9152 85.2886 73.0936C83.8536 72.8997 82.2877 73.052 80.5909 73.5506C79.1456 73.964 77.6562 74.6134 76.1226 75.4988C75.0401 76.1238 73.9585 76.9588 72.8778 78.0037C71.7711 79.0035 70.8518 80.0154 70.1199 81.0394L69.8207 81.3023C69.6403 81.4065 69.4208 81.443 69.1622 81.4119C68.9488 81.3547 68.79 81.2359 68.6858 81.0554L56.4593 59.8784C57.0089 58.5387 57.9238 57.2587 59.2039 56.0385C60.3297 54.9676 61.6594 53.9894 63.1929 53.104C64.7265 52.2186 66.2159 51.5691 67.6612 51.1557C69.358 50.6572 70.9239 50.5048 72.359 50.6987L83.609 70.1843C84.2176 69.051 85.1716 67.8387 86.4708 66.5474C87.7891 65.1849 89.0571 64.152 90.275 63.4489C92.1243 62.3812 93.959 61.6527 95.779 61.2635L84.529 41.7779ZM79.8012 70.3078L70.3872 54.0022C68.6954 54.1971 66.8573 54.8674 64.8726 56.0133C62.888 57.1591 61.3658 58.4289 60.3061 59.8225L69.7983 76.2635C71.3611 74.6996 72.9094 73.475 74.4429 72.5895C76.2472 71.5479 78.0333 70.7873 79.8012 70.3078Z" fill="#B0F3FE"/>
<path d="M147.542 -2.36102L157.152 14.2829L153.73 24.9187L144.55 9.01903L147.542 -2.36102ZM153.811 1.7779C155.192 1.46166 156.435 1.37537 157.541 1.51903L169.689 22.5607C169.793 22.7412 169.807 22.9737 169.731 23.2583C169.674 23.4717 169.555 23.6305 169.375 23.7347C169.239 23.8128 169.113 23.8553 168.997 23.8623C166.53 23.9638 163.943 24.7957 161.237 26.3582C160.019 27.0613 158.738 28.0716 157.393 29.389C156.094 30.6804 155.153 31.9152 154.571 33.0936C153.136 32.8997 151.57 33.052 149.873 33.5506C148.428 33.964 146.938 34.6134 145.405 35.4988C144.322 36.1238 143.24 36.9588 142.16 38.0037C141.053 39.0035 140.134 40.0154 139.402 41.0394L139.103 41.3023C138.922 41.4065 138.703 41.443 138.444 41.4119C138.231 41.3547 138.072 41.2359 137.968 41.0554L125.741 19.8784C126.291 18.5387 127.206 17.2587 128.486 16.0385C129.612 14.9676 130.941 13.9894 132.475 13.104C134.009 12.2186 135.498 11.5691 136.943 11.1557C138.64 10.6572 140.206 10.5048 141.641 10.6987L152.891 30.1843C153.5 29.051 154.454 27.8387 155.753 26.5474C157.071 25.1849 158.339 24.152 159.557 23.4489C161.406 22.3812 163.241 21.6527 165.061 21.2635L153.811 1.7779ZM149.083 30.3078L139.669 14.0022C137.977 14.1971 136.139 14.8674 134.155 16.0133C132.17 17.1591 130.648 18.4289 129.588 19.8225L139.08 36.2635C140.643 34.6996 142.191 33.475 143.725 32.5895C145.529 31.5479 147.315 30.7873 149.083 30.3078Z" fill="#B0F3FE"/>
<path d="M216.824 -42.361L226.434 -25.7171L223.012 -15.0813L213.832 -30.981L216.824 -42.361ZM223.093 -38.2221C224.474 -38.5383 225.717 -38.6246 226.823 -38.481L238.971 -17.4393C239.075 -17.2588 239.089 -17.0263 239.013 -16.7417C238.956 -16.5283 238.837 -16.3695 238.657 -16.2653C238.521 -16.1872 238.395 -16.1447 238.279 -16.1377C235.812 -16.0362 233.225 -15.2043 230.519 -13.6418C229.301 -12.9387 228.02 -11.9284 226.675 -10.611C225.376 -9.31961 224.435 -8.08476 223.853 -6.9064C222.418 -7.10028 220.852 -6.94795 219.155 -6.44942C217.71 -6.03599 216.22 -5.38657 214.687 -4.50115C213.604 -3.87615 212.523 -3.0412 211.442 -1.9963C210.335 -0.996497 209.416 0.0153884 208.684 1.03936L208.385 1.30233C208.204 1.4065 207.985 1.44301 207.726 1.41186C207.513 1.35466 207.354 1.23586 207.25 1.05544L195.023 -20.1216C195.573 -21.4613 196.488 -22.7413 197.768 -23.9615C198.894 -25.0324 200.223 -26.0106 201.757 -26.896C203.291 -27.7814 204.78 -28.4309 206.225 -28.8443C207.922 -29.3428 209.488 -29.4952 210.923 -29.3013L222.173 -9.81571C222.782 -10.949 223.736 -12.1613 225.035 -13.4526C226.353 -14.8151 227.621 -15.848 228.839 -16.5511C230.688 -17.6188 232.523 -18.3473 234.343 -18.7365L223.093 -38.2221ZM218.365 -9.69216L208.951 -25.9978C207.259 -25.8029 205.421 -25.1326 203.437 -23.9867C201.452 -22.8409 199.93 -21.5711 198.87 -20.1775L208.362 -3.73653C209.925 -5.3004 211.473 -6.52504 213.007 -7.41046C214.811 -8.45213 216.597 -9.21269 218.365 -9.69216Z" fill="#B0F3FE"/>
<path d="M48.9783 146.921L58.5877 163.565L55.1659 174.201L45.9862 158.301L48.9783 146.921ZM55.247 151.06C56.6281 150.744 57.8713 150.657 58.9766 150.801L71.125 171.843C71.2292 172.023 71.2432 172.256 71.1669 172.54C71.1097 172.754 70.9909 172.913 70.8105 173.017C70.6752 173.095 70.5494 173.137 70.4331 173.144C67.9658 173.246 65.3789 174.078 62.6726 175.64C61.4548 176.343 60.1737 177.354 58.8294 178.671C57.5302 179.962 56.5892 181.197 56.0066 182.376C54.5716 182.182 53.0057 182.334 51.3088 182.833C49.8636 183.246 48.3742 183.895 46.8406 184.781C45.7581 185.406 44.6765 186.241 43.5958 187.286C42.4891 188.286 41.5698 189.297 40.8379 190.321L40.5387 190.584C40.3582 190.689 40.1388 190.725 39.8802 190.694C39.6668 190.637 39.508 190.518 39.4038 190.337L27.1772 169.16C27.7268 167.821 28.6417 166.541 29.9219 165.321C31.0476 164.25 32.3773 163.271 33.9109 162.386C35.4445 161.501 36.9339 160.851 38.3792 160.438C40.076 159.939 41.6419 159.787 43.0769 159.981L54.3269 179.466C54.9356 178.333 55.8895 177.121 57.1887 175.829C58.507 174.467 59.7751 173.434 60.9929 172.731C62.8423 171.663 64.6769 170.935 66.497 170.545L55.247 151.06ZM50.5192 179.59L41.1051 163.284C39.4134 163.479 37.5752 164.149 35.5906 165.295C33.6059 166.441 32.0838 167.711 31.024 169.105L40.5162 185.545C42.0791 183.982 43.6273 182.757 45.1609 181.872C46.9651 180.83 48.7512 180.069 50.5192 179.59Z" fill="#B0F3FE"/>
<path d="M118.26 106.921L127.87 123.565L124.448 134.201L115.268 118.301L118.26 106.921ZM124.529 111.06C125.91 110.744 127.153 110.657 128.259 110.801L140.407 131.843C140.511 132.023 140.525 132.256 140.449 132.54C140.392 132.754 140.273 132.913 140.093 133.017C139.957 133.095 139.831 133.137 139.715 133.144C137.248 133.246 134.661 134.078 131.955 135.64C130.737 136.343 129.456 137.354 128.111 138.671C126.812 139.962 125.871 141.197 125.289 142.376C123.854 142.182 122.288 142.334 120.591 142.833C119.146 143.246 117.656 143.895 116.123 144.781C115.04 145.406 113.959 146.241 112.878 147.286C111.771 148.286 110.852 149.297 110.12 150.321L109.821 150.584C109.64 150.689 109.421 150.725 109.162 150.694C108.949 150.637 108.79 150.518 108.686 150.337L96.4593 129.16C97.0089 127.821 97.9238 126.541 99.2039 125.321C100.33 124.25 101.659 123.271 103.193 122.386C104.727 121.501 106.216 120.851 107.661 120.438C109.358 119.939 110.924 119.787 112.359 119.981L123.609 139.466C124.218 138.333 125.172 137.121 126.471 135.829C127.789 134.467 129.057 133.434 130.275 132.731C132.124 131.663 133.959 130.935 135.779 130.545L124.529 111.06ZM119.801 139.59L110.387 123.284C108.695 123.479 106.857 124.149 104.873 125.295C102.888 126.441 101.366 127.711 100.306 129.105L109.798 145.545C111.361 143.982 112.909 142.757 114.443 141.872C116.247 140.83 118.033 140.069 119.801 139.59Z" fill="#B0F3FE"/>
<path d="M187.542 66.921L197.152 83.5649L193.73 94.2008L184.55 78.3011L187.542 66.921ZM193.811 71.0599C195.192 70.7437 196.435 70.6574 197.541 70.8011L209.689 91.8428C209.793 92.0232 209.807 92.2557 209.731 92.5403C209.674 92.7537 209.555 92.9125 209.375 93.0167C209.239 93.0948 209.113 93.1374 208.997 93.1444C206.53 93.2458 203.943 94.0778 201.237 95.6403C200.019 96.3434 198.738 97.3537 197.393 98.6711C196.094 99.9624 195.153 101.197 194.571 102.376C193.136 102.182 191.57 102.334 189.873 102.833C188.428 103.246 186.938 103.895 185.405 104.781C184.322 105.406 183.24 106.241 182.16 107.286C181.053 108.286 180.134 109.297 179.402 110.321L179.103 110.584C178.922 110.689 178.703 110.725 178.444 110.694C178.231 110.637 178.072 110.518 177.968 110.337L165.741 89.1605C166.291 87.8207 167.206 86.5408 168.486 85.3206C169.612 84.2496 170.941 83.2714 172.475 82.386C174.009 81.5006 175.498 80.8512 176.943 80.4377C178.64 79.9392 180.206 79.7869 181.641 79.9808L192.891 99.4663C193.5 98.3331 194.454 97.1208 195.753 95.8294C197.071 94.4669 198.339 93.4341 199.557 92.731C201.406 91.6633 203.241 90.9348 205.061 90.5455L193.811 71.0599ZM189.083 99.5899L179.669 83.2842C177.977 83.4791 176.139 84.1495 174.155 85.2953C172.17 86.4412 170.648 87.7109 169.588 89.1046L179.08 105.546C180.643 103.982 182.191 102.757 183.725 101.872C185.529 100.83 187.315 100.069 189.083 99.5899Z" fill="#B0F3FE"/>
<path d="M256.824 26.921L266.434 43.5649L263.012 54.2008L253.832 38.3011L256.824 26.921ZM263.093 31.0599C264.474 30.7437 265.717 30.6574 266.823 30.8011L278.971 51.8428C279.075 52.0232 279.089 52.2557 279.013 52.5403C278.956 52.7537 278.837 52.9125 278.657 53.0167C278.521 53.0948 278.395 53.1374 278.279 53.1444C275.812 53.2458 273.225 54.0778 270.519 55.6403C269.301 56.3434 268.02 57.3537 266.675 58.6711C265.376 59.9624 264.435 61.1973 263.853 62.3756C262.418 62.1818 260.852 62.3341 259.155 62.8326C257.71 63.246 256.22 63.8955 254.687 64.7809C253.604 65.4059 252.523 66.2408 251.442 67.2857C250.335 68.2855 249.416 69.2974 248.684 70.3214L248.385 70.5844C248.204 70.6885 247.985 70.725 247.726 70.6939C247.513 70.6367 247.354 70.5179 247.25 70.3375L235.023 49.1605C235.573 47.8207 236.488 46.5408 237.768 45.3206C238.894 44.2496 240.223 43.2714 241.757 42.386C243.291 41.5006 244.78 40.8512 246.225 40.4377C247.922 39.9392 249.488 39.7869 250.923 39.9808L262.173 59.4663C262.782 58.3331 263.736 57.1208 265.035 55.8294C266.353 54.4669 267.621 53.4341 268.839 52.731C270.688 51.6633 272.523 50.9348 274.343 50.5455L263.093 31.0599ZM258.365 59.5899L248.951 43.2842C247.259 43.4791 245.421 44.1495 243.437 45.2953C241.452 46.4412 239.93 47.7109 238.87 49.1046L248.362 65.5455C249.925 63.9816 251.473 62.757 253.007 61.8716C254.811 60.8299 256.597 60.0694 258.365 59.5899Z" fill="#B0F3FE"/>
<path d="M227.542 136.203L237.152 152.847L233.73 163.483L224.55 147.583L227.542 136.203ZM233.811 140.342C235.192 140.026 236.435 139.939 237.541 140.083L249.689 161.125C249.793 161.305 249.807 161.538 249.731 161.822C249.674 162.036 249.555 162.195 249.375 162.299C249.239 162.377 249.113 162.419 248.997 162.426C246.53 162.528 243.943 163.36 241.237 164.922C240.019 165.625 238.738 166.636 237.393 167.953C236.094 169.244 235.153 170.479 234.571 171.658C233.136 171.464 231.57 171.616 229.873 172.115C228.428 172.528 226.938 173.178 225.405 174.063C224.322 174.688 223.24 175.523 222.16 176.568C221.053 177.568 220.134 178.579 219.402 179.603L219.103 179.866C218.922 179.971 218.703 180.007 218.444 179.976C218.231 179.919 218.072 179.8 217.968 179.62L205.741 158.442C206.291 157.103 207.206 155.823 208.486 154.603C209.612 153.532 210.941 152.553 212.475 151.668C214.009 150.783 215.498 150.133 216.943 149.72C218.64 149.221 220.206 149.069 221.641 149.263L232.891 168.748C233.5 167.615 234.454 166.403 235.753 165.111C237.071 163.749 238.339 162.716 239.557 162.013C241.406 160.945 243.241 160.217 245.061 159.828L233.811 140.342ZM229.083 168.872L219.669 152.566C217.977 152.761 216.139 153.432 214.155 154.577C212.17 155.723 210.648 156.993 209.588 158.387L219.08 174.828C220.643 173.264 222.191 172.039 223.725 171.154C225.529 170.112 227.315 169.351 229.083 168.872Z" fill="#B0F3FE"/>
</svg>
