<svg width="264" height="148" viewBox="0 0 264 148" fill="none" xmlns="http://www.w3.org/2000/svg">
<path d="M43.9285 -25.263C44.7404 -25.7317 45.5863 -25.8292 46.4661 -25.5553C47.3459 -25.2814 48.0071 -24.7611 48.4499 -23.9943L57.5905 -8.16229C58.0332 -7.3955 58.1532 -6.56266 57.9505 -5.66379C57.7477 -4.76492 57.2404 -4.08111 56.4285 -3.61236L33.2894 9.74702C32.4775 10.2158 31.6317 10.3132 30.7518 10.0393C29.872 9.76546 29.2108 9.24513 28.7681 8.47834L19.6274 -7.35369C19.1847 -8.12048 19.0647 -8.95332 19.2675 -9.85219C19.4702 -10.7511 19.9775 -11.4349 20.7894 -11.9036L26.608 -15.263L24.9283 -18.1723C24.4596 -18.9842 24.3396 -19.817 24.5683 -20.6708C24.7971 -21.5246 25.3174 -22.1858 26.1293 -22.6546L31.948 -26.0139C32.7599 -26.4827 33.5927 -26.6027 34.4464 -26.3739C35.3002 -26.1452 35.9615 -25.6248 36.4302 -24.8129L38.1099 -21.9036L43.9285 -25.263ZM22.4691 -8.99432L31.6097 6.83771L54.7488 -6.52166L45.6082 -22.3537L22.4691 -8.99432ZM35.2683 -20.263L33.5886 -23.1723L27.77 -19.8129L29.4497 -16.9036L35.2683 -20.263Z" fill="#FFF89C"/>
<path d="M14.6465 84.019C15.4584 83.5503 16.3042 83.4529 17.184 83.7267C18.0638 84.0006 18.7251 84.5209 19.1678 85.2877L28.3084 101.12C28.7511 101.887 28.8711 102.719 28.6684 103.618C28.4657 104.517 27.9584 105.201 27.1465 105.67L4.00736 119.029C3.19546 119.498 2.34961 119.595 1.4698 119.321C0.589991 119.048 -0.0712664 118.527 -0.513975 117.76L-9.6546 101.928C-10.0973 101.162 -10.2173 100.329 -10.0146 99.4299C-9.81185 98.531 -9.30454 97.8472 -8.49264 97.3784L-2.67403 94.019L-4.35372 91.1097C-4.82247 90.2978 -4.94246 89.465 -4.7137 88.6112C-4.48493 87.7575 -3.9646 87.0962 -3.1527 86.6275L2.66591 83.2681C3.47781 82.7993 4.31064 82.6794 5.1644 82.9081C6.01817 83.1369 6.67943 83.6572 7.14818 84.4691L8.82787 87.3784L14.6465 84.019ZM-6.81295 100.288L2.32767 116.12L25.4668 102.76L16.3262 86.9284L-6.81295 100.288ZM5.98622 89.019L4.30653 86.1097L-1.51208 89.4691L0.167612 92.3784L5.98622 89.019Z" fill="#FFF89C"/>
<path d="M83.9285 44.019C84.7404 43.5503 85.5863 43.4528 86.4661 43.7267C87.3459 44.0006 88.0071 44.5209 88.4499 45.2877L97.5905 61.1197C98.0332 61.8865 98.1532 62.7194 97.9505 63.6182C97.7477 64.5171 97.2404 65.2009 96.4285 65.6697L73.2894 79.029C72.4775 79.4978 71.6317 79.5952 70.7518 79.3214C69.872 79.0475 69.2108 78.5272 68.7681 77.7604L59.6274 61.9283C59.1847 61.1615 59.0647 60.3287 59.2675 59.4298C59.4702 58.531 59.9775 57.8472 60.7894 57.3784L66.608 54.019L64.9283 51.1097C64.4596 50.2978 64.3396 49.465 64.5683 48.6112C64.7971 47.7575 65.3174 47.0962 66.1293 46.6275L71.948 43.2681C72.7599 42.7993 73.5927 42.6793 74.4464 42.9081C75.3002 43.1369 75.9615 43.6572 76.4302 44.4691L78.1099 47.3784L83.9285 44.019ZM62.4691 60.2877L71.6097 76.1197L94.7488 62.7604L85.6082 46.9283L62.4691 60.2877ZM75.2683 49.019L73.5886 46.1097L67.77 49.4691L69.4497 52.3784L75.2683 49.019Z" fill="#FFF89C"/>
<path d="M153.211 4.01903C154.022 3.55028 154.868 3.45284 155.748 3.72672C156.628 4.00059 157.289 4.52092 157.732 5.28771L166.872 21.1197C167.315 21.8865 167.435 22.7194 167.232 23.6182C167.03 24.5171 166.522 25.2009 165.711 25.6697L142.571 39.029C141.759 39.4978 140.914 39.5952 140.034 39.3214C139.154 39.0475 138.493 38.5272 138.05 37.7604L128.909 21.9283C128.467 21.1615 128.347 20.3287 128.549 19.4298C128.752 18.531 129.259 17.8472 130.071 17.3784L135.89 14.019L134.21 11.1097C133.742 10.2978 133.622 9.465 133.85 8.61123C134.079 7.75747 134.599 7.09621 135.411 6.62746L141.23 3.26808C142.042 2.79933 142.875 2.67934 143.728 2.90811C144.582 3.13687 145.243 3.65721 145.712 4.4691L147.392 7.37841L153.211 4.01903ZM131.751 20.2877L140.892 36.1197L164.031 22.7604L154.89 6.92834L131.751 20.2877ZM144.55 9.01903L142.871 6.10973L137.052 9.4691L138.732 12.3784L144.55 9.01903Z" fill="#FFF89C"/>
<path d="M222.493 -35.981C223.305 -36.4497 224.15 -36.5472 225.03 -36.2733C225.91 -35.9994 226.571 -35.4791 227.014 -34.7123L236.155 -18.8803C236.597 -18.1135 236.717 -17.2806 236.515 -16.3818C236.312 -15.4829 235.805 -14.7991 234.993 -14.3303L211.853 -0.970957C211.042 -0.502207 210.196 -0.404767 209.316 -0.678639C208.436 -0.95251 207.775 -1.47284 207.332 -2.23964L198.192 -18.0717C197.749 -18.8385 197.629 -19.6713 197.832 -20.5702C198.034 -21.469 198.542 -22.1528 199.353 -22.6216L205.172 -25.981L203.492 -28.8903C203.024 -29.7022 202.904 -30.535 203.132 -31.3888C203.361 -32.2425 203.882 -32.9038 204.693 -33.3725L210.512 -36.7319C211.324 -37.2007 212.157 -37.3207 213.011 -37.0919C213.864 -36.8631 214.526 -36.3428 214.994 -35.5309L216.674 -32.6216L222.493 -35.981ZM201.033 -19.7123L210.174 -3.88026L233.313 -17.2396L224.172 -33.0717L201.033 -19.7123ZM213.832 -30.981L212.153 -33.8903L206.334 -30.5309L208.014 -27.6216L213.832 -30.981Z" fill="#FFF89C"/>
<path d="M54.6464 153.301C55.4583 152.832 56.3042 152.735 57.184 153.009C58.0638 153.283 58.725 153.803 59.1677 154.57L68.3084 170.402C68.7511 171.169 68.8711 172.001 68.6683 172.9C68.4656 173.799 67.9583 174.483 67.1464 174.952L44.0073 188.311C43.1954 188.78 42.3495 188.877 41.4697 188.603C40.5899 188.33 39.9287 187.809 39.486 187.042L30.3453 171.21C29.9026 170.444 29.7826 169.611 29.9854 168.712C30.1881 167.813 30.6954 167.129 31.5073 166.66L37.3259 163.301L35.6462 160.392C35.1775 159.58 35.0575 158.747 35.2862 157.893C35.515 157.039 36.0353 156.378 36.8472 155.909L42.6658 152.55C43.4777 152.081 44.3106 151.961 45.1643 152.19C46.0181 152.419 46.6794 152.939 47.1481 153.751L48.8278 156.66L54.6464 153.301ZM33.187 169.57L42.3276 185.402L65.4667 172.042L56.3261 156.21L33.187 169.57ZM45.9862 158.301L44.3065 155.392L38.4879 158.751L40.1676 161.66L45.9862 158.301Z" fill="#FFF89C"/>
<path d="M123.929 113.301C124.74 112.832 125.586 112.735 126.466 113.009C127.346 113.283 128.007 113.803 128.45 114.57L137.59 130.402C138.033 131.169 138.153 132.001 137.95 132.9C137.748 133.799 137.24 134.483 136.429 134.952L113.289 148.311C112.478 148.78 111.632 148.877 110.752 148.603C109.872 148.33 109.211 147.809 108.768 147.042L99.6274 131.21C99.1847 130.444 99.0647 129.611 99.2675 128.712C99.4702 127.813 99.9775 127.129 100.789 126.66L106.608 123.301L104.928 120.392C104.46 119.58 104.34 118.747 104.568 117.893C104.797 117.039 105.317 116.378 106.129 115.909L111.948 112.55C112.76 112.081 113.593 111.961 114.446 112.19C115.3 112.419 115.961 112.939 116.43 113.751L118.11 116.66L123.929 113.301ZM102.469 129.57L111.61 145.402L134.749 132.042L125.608 116.21L102.469 129.57ZM115.268 118.301L113.589 115.392L107.77 118.751L109.45 121.66L115.268 118.301Z" fill="#FFF89C"/>
<path d="M193.211 73.3011C194.022 72.8323 194.868 72.7349 195.748 73.0088C196.628 73.2826 197.289 73.803 197.732 74.5698L206.872 90.4018C207.315 91.1686 207.435 92.0014 207.232 92.9003C207.03 93.7992 206.522 94.483 205.711 94.9517L182.571 108.311C181.759 108.78 180.914 108.877 180.034 108.603C179.154 108.33 178.493 107.809 178.05 107.042L168.909 91.2104C168.467 90.4436 168.347 89.6108 168.549 88.7119C168.752 87.813 169.259 87.1292 170.071 86.6605L175.89 83.3011L174.21 80.3918C173.742 79.5799 173.622 78.747 173.85 77.8933C174.079 77.0395 174.599 76.3783 175.411 75.9095L181.23 72.5501C182.042 72.0814 182.875 71.9614 183.728 72.1902C184.582 72.4189 185.243 72.9392 185.712 73.7511L187.392 76.6605L193.211 73.3011ZM171.751 89.5698L180.892 105.402L204.031 92.0424L194.89 76.2104L171.751 89.5698ZM184.55 78.3011L182.871 75.3918L177.052 78.7511L178.732 81.6605L184.55 78.3011Z" fill="#FFF89C"/>
<path d="M262.493 33.3011C263.305 32.8323 264.15 32.7349 265.03 33.0088C265.91 33.2826 266.571 33.803 267.014 34.5698L276.155 50.4018C276.597 51.1686 276.717 52.0014 276.515 52.9003C276.312 53.7992 275.805 54.483 274.993 54.9517L251.853 68.3111C251.042 68.7798 250.196 68.8773 249.316 68.6034C248.436 68.3295 247.775 67.8092 247.332 67.0424L238.192 51.2104C237.749 50.4436 237.629 49.6108 237.832 48.7119C238.034 47.813 238.542 47.1292 239.353 46.6605L245.172 43.3011L243.492 40.3918C243.024 39.5799 242.904 38.747 243.132 37.8933C243.361 37.0395 243.882 36.3783 244.693 35.9095L250.512 32.5501C251.324 32.0814 252.157 31.9614 253.011 32.1902C253.864 32.4189 254.526 32.9392 254.994 33.7511L256.674 36.6605L262.493 33.3011ZM241.033 49.5698L250.174 65.4018L273.313 52.0424L264.172 36.2104L241.033 49.5698ZM253.832 38.3011L252.153 35.3918L246.334 38.7511L248.014 41.6605L253.832 38.3011Z" fill="#FFF89C"/>
<path d="M233.211 142.583C234.022 142.114 234.868 142.017 235.748 142.291C236.628 142.565 237.289 143.085 237.732 143.852L246.872 159.684C247.315 160.451 247.435 161.283 247.232 162.182C247.03 163.081 246.522 163.765 245.711 164.234L222.571 177.593C221.759 178.062 220.914 178.159 220.034 177.885C219.154 177.612 218.493 177.091 218.05 176.324L208.909 160.492C208.467 159.726 208.347 158.893 208.549 157.994C208.752 157.095 209.259 156.411 210.071 155.942L215.89 152.583L214.21 149.674C213.742 148.862 213.622 148.029 213.85 147.175C214.079 146.322 214.599 145.66 215.411 145.192L221.23 141.832C222.042 141.363 222.875 141.243 223.728 141.472C224.582 141.701 225.243 142.221 225.712 143.033L227.392 145.942L233.211 142.583ZM211.751 158.852L220.892 174.684L244.031 161.324L234.89 145.492L211.751 158.852ZM224.55 147.583L222.871 144.674L217.052 148.033L218.732 150.942L224.55 147.583Z" fill="#FFF89C"/>
</svg>
