<svg width="264" height="148" viewBox="0 0 264 148" fill="none" xmlns="http://www.w3.org/2000/svg">
<path d="M30.6793 -21.4926C32.258 -22.4041 33.9367 -22.6215 35.7153 -22.1449C37.494 -21.6683 38.8521 -20.6181 39.7896 -18.9943C40.7011 -17.4156 40.9185 -15.7369 40.4419 -13.9583C39.9653 -12.1796 38.9377 -10.8345 37.359 -9.92305C35.7803 -9.01159 34.1016 -8.79416 32.3229 -9.27076C30.5442 -9.74735 29.1992 -10.775 28.2877 -12.3537C27.3502 -13.9775 27.1197 -15.6787 27.5963 -17.4574C28.0729 -19.2361 29.1006 -20.5812 30.6793 -21.4926ZM32.359 -18.5833C31.5471 -18.1146 31.0172 -17.4177 30.7694 -16.4928C30.5406 -15.639 30.6606 -14.8062 31.1293 -13.9943C31.5721 -13.2275 32.2333 -12.7072 33.1131 -12.4333C34.012 -12.2306 34.8674 -12.3636 35.6793 -12.8324C36.4912 -13.3011 37.0115 -13.9624 37.2403 -14.8161C37.4881 -15.741 37.3907 -16.5869 36.948 -17.3537C36.4792 -18.1656 35.7954 -18.6729 34.8965 -18.8756C34.0167 -19.1495 33.1709 -19.0521 32.359 -18.5833ZM38.1793 -8.50223C39.6226 -9.33556 41.3315 -10.0215 43.306 -10.56C45.532 -11.1837 47.4527 -11.4506 49.0681 -11.3609C51.0584 -11.247 52.4051 -10.5812 53.1082 -9.36331L55.6082 -5.03318L32.4691 8.32619L29.9691 3.99607C29.266 2.77822 29.3627 1.27902 30.2592 -0.50153C30.9892 -1.94541 32.1807 -3.47532 33.8338 -5.09127C35.2874 -6.53191 36.7359 -7.6689 38.1793 -8.50223ZM39.7808 -5.72824C38.4277 -4.94699 37.1336 -3.95928 35.8985 -2.7651C34.8439 -1.67509 34.0088 -0.621589 33.3931 0.395405C32.7775 1.4124 32.5608 2.07876 32.7431 2.3945L33.6415 3.95064L51.2327 -6.20561L50.3342 -7.76175C50.1519 -8.07749 49.4665 -8.22302 48.2779 -8.19835C47.0894 -8.17367 45.7594 -7.97717 44.2881 -7.60885C42.6364 -7.13636 41.134 -6.50949 39.7808 -5.72824Z" fill="#FFE3B0"/>
<path d="M1.39717 87.7894C2.97586 86.878 4.65455 86.6605 6.43322 87.1371C8.2119 87.6137 9.56999 88.6639 10.5075 90.2877C11.419 91.8664 11.6364 93.5451 11.1598 95.3238C10.6832 97.1025 9.65555 98.4475 8.07686 99.359C6.49816 100.27 4.81948 100.488 3.0408 100.011C1.26212 99.5347 -0.0829486 98.507 -0.994407 96.9284C-1.93191 95.3046 -2.16236 93.6033 -1.68576 91.8246C-1.20917 90.046 -0.181524 88.7009 1.39717 87.7894ZM3.07686 90.6987C2.26496 91.1675 1.73509 91.8643 1.48726 92.7892C1.2585 93.643 1.37849 94.4758 1.84724 95.2877C2.28995 96.0545 2.95121 96.5749 3.83101 96.8487C4.72988 97.0514 5.58527 96.9184 6.39717 96.4497C7.20907 95.9809 7.7294 95.3197 7.95816 94.4659C8.20599 93.541 8.10856 92.6951 7.66585 91.9284C7.1971 91.1165 6.51329 90.6091 5.61441 90.4064C4.73461 90.1325 3.88875 90.23 3.07686 90.6987ZM8.89717 100.78C10.3405 99.9465 12.0494 99.2605 14.0239 98.722C16.2499 98.0984 18.1706 97.8314 19.786 97.9211C21.7763 98.035 23.123 98.7009 23.8261 99.9187L26.3261 104.249L3.18699 117.608L0.686985 113.278C-0.01614 112.06 0.0805478 110.561 0.977048 108.781C1.70708 107.337 2.89864 105.807 4.55172 104.191C6.00531 102.75 7.45379 101.613 8.89717 100.78ZM10.4987 103.554C9.14557 104.335 7.85146 105.323 6.61642 106.517C5.5618 107.607 4.72666 108.66 4.11101 109.677C3.49536 110.694 3.27868 111.361 3.46097 111.677L4.35941 113.233L21.9506 103.076L21.0521 101.52C20.8698 101.205 20.1844 101.059 18.9958 101.084C17.8073 101.108 16.4773 101.305 15.006 101.673C13.3543 102.146 11.8519 102.773 10.4987 103.554Z" fill="#FFE3B0"/>
<path d="M70.6793 47.7894C72.258 46.878 73.9367 46.6605 75.7153 47.1371C77.494 47.6137 78.8521 48.6639 79.7896 50.2877C80.7011 51.8664 80.9185 53.5451 80.4419 55.3238C79.9653 57.1024 78.9377 58.4475 77.359 59.359C75.7803 60.2704 74.1016 60.4879 72.3229 60.0113C70.5442 59.5347 69.1992 58.507 68.2877 56.9283C67.3502 55.3045 67.1197 53.6033 67.5963 51.8246C68.0729 50.0459 69.1006 48.7009 70.6793 47.7894ZM72.359 50.6987C71.5471 51.1675 71.0172 51.8643 70.7694 52.7892C70.5406 53.643 70.6606 54.4758 71.1293 55.2877C71.5721 56.0545 72.2333 56.5748 73.1131 56.8487C74.012 57.0514 74.8674 56.9184 75.6793 56.4497C76.4912 55.9809 77.0115 55.3197 77.2403 54.4659C77.4881 53.541 77.3907 52.6951 76.948 51.9283C76.4792 51.1164 75.7954 50.6091 74.8965 50.4064C74.0167 50.1325 73.1709 50.23 72.359 50.6987ZM78.1793 60.7798C79.6226 59.9465 81.3315 59.2605 83.306 58.722C85.532 58.0984 87.4527 57.8314 89.0681 57.9211C91.0584 58.035 92.4051 58.7009 93.1082 59.9187L95.6082 64.2488L72.4691 77.6082L69.9691 73.2781C69.266 72.0602 69.3627 70.561 70.2592 68.7805C70.9892 67.3366 72.1807 65.8067 73.8338 64.1908C75.2874 62.7501 76.7359 61.6131 78.1793 60.7798ZM79.7808 63.5538C78.4277 64.335 77.1336 65.3227 75.8985 66.5169C74.8439 67.6069 74.0088 68.6604 73.3931 69.6774C72.7775 70.6944 72.5608 71.3608 72.7431 71.6765L73.6415 73.2327L91.2327 63.0764L90.3342 61.5203C90.1519 61.2045 89.4665 61.059 88.2779 61.0837C87.0894 61.1084 85.7594 61.3049 84.2881 61.6732C82.6364 62.1457 81.134 62.7725 79.7808 63.5538Z" fill="#FFE3B0"/>
<path d="M139.961 7.78942C141.54 6.87796 143.219 6.66053 144.997 7.13712C146.776 7.61372 148.134 8.66392 149.072 10.2877C149.983 11.8664 150.2 13.5451 149.724 15.3238C149.247 17.1024 148.22 18.4475 146.641 19.359C145.062 20.2704 143.384 20.4879 141.605 20.0113C139.826 19.5347 138.481 18.507 137.57 16.9283C136.632 15.3045 136.402 13.6033 136.878 11.8246C137.355 10.0459 138.383 8.70088 139.961 7.78942ZM141.641 10.6987C140.829 11.1675 140.299 11.8643 140.051 12.7892C139.823 13.643 139.943 14.4758 140.411 15.2877C140.854 16.0545 141.515 16.5748 142.395 16.8487C143.294 17.0514 144.149 16.9184 144.961 16.4497C145.773 15.9809 146.293 15.3197 146.522 14.4659C146.77 13.541 146.673 12.6951 146.23 11.9283C145.761 11.1164 145.077 10.6091 144.179 10.4064C143.299 10.1325 142.453 10.23 141.641 10.6987ZM147.461 20.7798C148.905 19.9465 150.614 19.2605 152.588 18.722C154.814 18.0984 156.735 17.8314 158.35 17.9211C160.34 18.035 161.687 18.7009 162.39 19.9187L164.89 24.2488L141.751 37.6082L139.251 33.2781C138.548 32.0602 138.645 30.561 139.541 28.7805C140.271 27.3366 141.463 25.8067 143.116 24.1908C144.569 22.7501 146.018 21.6131 147.461 20.7798ZM149.063 23.5538C147.71 24.335 146.416 25.3227 145.181 26.5169C144.126 27.6069 143.291 28.6604 142.675 29.6774C142.059 30.6944 141.843 31.3608 142.025 31.6765L142.923 33.2327L160.515 23.0764L159.616 21.5203C159.434 21.2045 158.748 21.059 157.56 21.0837C156.371 21.1084 155.041 21.3049 153.57 21.6732C151.918 22.1457 150.416 22.7725 149.063 23.5538Z" fill="#FFE3B0"/>
<path d="M110.679 117.071C112.258 116.16 113.937 115.943 115.715 116.419C117.494 116.896 118.852 117.946 119.79 119.57C120.701 121.148 120.918 122.827 120.442 124.606C119.965 126.384 118.938 127.73 117.359 128.641C115.78 129.552 114.102 129.77 112.323 129.293C110.544 128.817 109.199 127.789 108.288 126.21C107.35 124.587 107.12 122.885 107.596 121.107C108.073 119.328 109.101 117.983 110.679 117.071ZM112.359 119.981C111.547 120.449 111.017 121.146 110.769 122.071C110.541 122.925 110.661 123.758 111.129 124.57C111.572 125.337 112.233 125.857 113.113 126.131C114.012 126.333 114.867 126.2 115.679 125.732C116.491 125.263 117.012 124.602 117.24 123.748C117.488 122.823 117.391 121.977 116.948 121.21C116.479 120.398 115.795 119.891 114.897 119.688C114.017 119.415 113.171 119.512 112.359 119.981ZM118.179 130.062C119.623 129.228 121.332 128.543 123.306 128.004C125.532 127.38 127.453 127.113 129.068 127.203C131.058 127.317 132.405 127.983 133.108 129.201L135.608 133.531L112.469 146.89L109.969 142.56C109.266 141.342 109.363 139.843 110.259 138.063C110.989 136.619 112.181 135.089 113.834 133.473C115.287 132.032 116.736 130.895 118.179 130.062ZM119.781 132.836C118.428 133.617 117.134 134.605 115.899 135.799C114.844 136.889 114.009 137.942 113.393 138.959C112.777 139.976 112.561 140.643 112.743 140.959L113.642 142.515L131.233 132.358L130.334 130.802C130.152 130.487 129.466 130.341 128.278 130.366C127.089 130.39 125.759 130.587 124.288 130.955C122.636 131.428 121.134 132.055 119.781 132.836Z" fill="#FFE3B0"/>
<path d="M179.961 77.0715C181.54 76.16 183.219 75.9426 184.997 76.4192C186.776 76.8958 188.134 77.946 189.072 79.5698C189.983 81.1484 190.2 82.8271 189.724 84.6058C189.247 86.3845 188.22 87.7296 186.641 88.641C185.062 89.5525 183.384 89.7699 181.605 89.2933C179.826 88.8167 178.481 87.7891 177.57 86.2104C176.632 84.5866 176.402 82.8853 176.878 81.1067C177.355 79.328 178.383 77.9829 179.961 77.0715ZM181.641 79.9808C180.829 80.4495 180.299 81.1463 180.051 82.0713C179.823 82.925 179.943 83.7579 180.411 84.5698C180.854 85.3365 181.515 85.8569 182.395 86.1308C183.294 86.3335 184.149 86.2005 184.961 85.7317C185.773 85.263 186.293 84.6017 186.522 83.7479C186.77 82.823 186.673 81.9772 186.23 81.2104C185.761 80.3985 185.077 79.8912 184.179 79.6884C183.299 79.4146 182.453 79.512 181.641 79.9808ZM187.461 90.0618C188.905 89.2285 190.614 88.5426 192.588 88.004C194.814 87.3804 196.735 87.1135 198.35 87.2032C200.34 87.317 201.687 87.9829 202.39 89.2008L204.89 93.5309L181.751 106.89L179.251 102.56C178.548 101.342 178.645 99.8431 179.541 98.0625C180.271 96.6187 181.463 95.0888 183.116 93.4728C184.569 92.0322 186.018 90.8952 187.461 90.0618ZM189.063 92.8358C187.71 93.6171 186.416 94.6048 185.181 95.799C184.126 96.889 183.291 97.9425 182.675 98.9595C182.059 99.9765 181.843 100.643 182.025 100.959L182.923 102.515L200.515 92.3585L199.616 90.8023C199.434 90.4866 198.748 90.3411 197.56 90.3657C196.371 90.3904 195.041 90.5869 193.57 90.9552C191.918 91.4277 190.416 92.0546 189.063 92.8358Z" fill="#FFE3B0"/>
<path d="M249.243 37.0715C250.822 36.16 252.501 35.9426 254.279 36.4192C256.058 36.8958 257.416 37.946 258.354 39.5698C259.265 41.1484 259.483 42.8271 259.006 44.6058C258.529 46.3845 257.502 47.7296 255.923 48.641C254.344 49.5525 252.666 49.7699 250.887 49.2933C249.108 48.8167 247.763 47.7891 246.852 46.2104C245.914 44.5866 245.684 42.8853 246.16 41.1067C246.637 39.328 247.665 37.9829 249.243 37.0715ZM250.923 39.9808C250.111 40.4495 249.581 41.1463 249.333 42.0713C249.105 42.925 249.225 43.7579 249.693 44.5698C250.136 45.3365 250.797 45.8569 251.677 46.1308C252.576 46.3335 253.431 46.2005 254.243 45.7317C255.055 45.263 255.576 44.6017 255.804 43.7479C256.052 42.823 255.955 41.9772 255.512 41.2104C255.043 40.3985 254.359 39.8912 253.461 39.6884C252.581 39.4146 251.735 39.512 250.923 39.9808ZM256.743 50.0618C258.187 49.2285 259.896 48.5426 261.87 48.004C264.096 47.3804 266.017 47.1135 267.632 47.2032C269.622 47.317 270.969 47.9829 271.672 49.2008L274.172 53.5309L251.033 66.8903L248.533 62.5601C247.83 61.3423 247.927 59.8431 248.823 58.0625C249.553 56.6187 250.745 55.0888 252.398 53.4728C253.851 52.0322 255.3 50.8952 256.743 50.0618ZM258.345 52.8358C256.992 53.6171 255.698 54.6048 254.463 55.799C253.408 56.889 252.573 57.9425 251.957 58.9595C251.342 59.9765 251.125 60.6428 251.307 60.9586L252.206 62.5147L269.797 52.3585L268.898 50.8023C268.716 50.4866 268.031 50.3411 266.842 50.3657C265.653 50.3904 264.324 50.5869 262.852 50.9552C261.201 51.4277 259.698 52.0546 258.345 52.8358Z" fill="#FFE3B0"/>
<path d="M219.961 146.353C221.54 145.442 223.219 145.225 224.997 145.701C226.776 146.178 228.134 147.228 229.072 148.852C229.983 150.43 230.2 152.109 229.724 153.888C229.247 155.667 228.22 157.012 226.641 157.923C225.062 158.835 223.384 159.052 221.605 158.575C219.826 158.099 218.481 157.071 217.57 155.492C216.632 153.869 216.402 152.167 216.878 150.389C217.355 148.61 218.383 147.265 219.961 146.353ZM221.641 149.263C220.829 149.732 220.299 150.428 220.051 151.353C219.823 152.207 219.943 153.04 220.411 153.852C220.854 154.619 221.515 155.139 222.395 155.413C223.294 155.616 224.149 155.482 224.961 155.014C225.773 154.545 226.293 153.884 226.522 153.03C226.77 152.105 226.673 151.259 226.23 150.492C225.761 149.681 225.077 149.173 224.179 148.97C223.299 148.697 222.453 148.794 221.641 149.263ZM227.461 159.344C228.905 158.511 230.614 157.825 232.588 157.286C234.814 156.662 236.735 156.395 238.35 156.485C240.34 156.599 241.687 157.265 242.39 158.483L244.89 162.813L221.751 176.172L219.251 171.842C218.548 170.624 218.645 169.125 219.541 167.345C220.271 165.901 221.463 164.371 223.116 162.755C224.569 161.314 226.018 160.177 227.461 159.344ZM229.063 162.118C227.71 162.899 226.416 163.887 225.181 165.081C224.126 166.171 223.291 167.225 222.675 168.242C222.059 169.258 221.843 169.925 222.025 170.241L222.923 171.797L240.515 161.64L239.616 160.084C239.434 159.769 238.748 159.623 237.56 159.648C236.371 159.672 235.041 159.869 233.57 160.237C231.918 160.71 230.416 161.337 229.063 162.118Z" fill="#FFE3B0"/>
</svg>
