<svg width="264" height="148" viewBox="0 0 264 148" fill="none" xmlns="http://www.w3.org/2000/svg">
<path d="M14.6274 -16.0139L17.4691 -17.6546L32.4691 8.32619L58.4499 -6.67381L60.0905 -3.83216L31.2681 12.8085L14.6274 -16.0139ZM28.4398 -8.65267L42.9187 -17.012L45.4187 -12.6819L30.9398 -4.32254L28.4398 -8.65267ZM38.4381 -4.77261L52.8493 -13.0929L55.3493 -8.7628L40.9381 -0.442487L38.4381 -4.77261ZM22.019 -16.4926L45.0905 -29.8129L48.4499 -23.9943L45.6082 -22.3537L43.9285 -25.263L26.608 -15.263L28.2877 -12.3537L25.3784 -10.674L22.019 -16.4926Z" fill="#CACFFC"/>
<path d="M-14.6547 93.2681L-11.813 91.6275L3.18699 117.608L29.1677 102.608L30.8084 105.45L1.98596 122.091L-14.6547 93.2681ZM-0.842263 100.629L13.6366 92.27L16.1366 96.6001L1.65774 104.96L-0.842263 100.629ZM9.15603 104.509L23.5672 96.1891L26.0672 100.519L11.656 108.84L9.15603 104.509ZM-7.26309 92.7894L15.8084 79.4691L19.1677 85.2877L16.3261 86.9284L14.6464 84.019L-2.67409 94.019L-0.994407 96.9284L-3.90371 98.608L-7.26309 92.7894Z" fill="#CACFFC"/>
<path d="M54.6274 53.2681L57.4691 51.6275L72.4691 77.6082L98.4499 62.6082L100.09 65.4499L71.2681 82.0905L54.6274 53.2681ZM68.4398 60.6294L82.9187 52.27L85.4187 56.6001L70.9398 64.9595L68.4398 60.6294ZM78.4381 64.5094L92.8493 56.1891L95.3493 60.5192L80.9381 68.8395L78.4381 64.5094ZM62.019 52.7894L85.0905 39.4691L88.4499 45.2877L85.6082 46.9283L83.9285 44.019L66.608 54.019L68.2877 56.9283L65.3784 58.608L62.019 52.7894Z" fill="#CACFFC"/>
<path d="M123.909 13.2681L126.751 11.6275L141.751 37.6082L167.732 22.6082L169.372 25.4499L140.55 42.0905L123.909 13.2681ZM137.722 20.6294L152.201 12.27L154.701 16.6001L140.222 24.9595L137.722 20.6294ZM147.72 24.5094L162.131 16.1891L164.631 20.5192L150.22 28.8395L147.72 24.5094ZM131.301 12.7894L154.372 -0.530895L157.732 5.28771L154.89 6.92834L153.211 4.01903L135.89 14.019L137.57 16.9283L134.66 18.608L131.301 12.7894Z" fill="#CACFFC"/>
<path d="M193.192 -26.7319L196.033 -28.3725L211.033 -2.39178L237.014 -17.3918L238.655 -14.5501L209.832 2.09049L193.192 -26.7319ZM207.004 -19.3706L221.483 -27.73L223.983 -23.3999L209.504 -15.0405L207.004 -19.3706ZM217.002 -15.4906L231.413 -23.8109L233.913 -19.4808L219.502 -11.1605L217.002 -15.4906ZM200.583 -27.2106L223.655 -40.5309L227.014 -34.7123L224.172 -33.0717L222.493 -35.981L205.172 -25.981L206.852 -23.0717L203.942 -21.392L200.583 -27.2106Z" fill="#CACFFC"/>
<path d="M25.3453 162.55L28.187 160.909L43.187 186.89L69.1677 171.89L70.8084 174.732L41.986 191.373L25.3453 162.55ZM39.1577 169.911L53.6366 161.552L56.1366 165.882L41.6577 174.242L39.1577 169.911ZM49.156 173.791L63.5672 165.471L66.0672 169.801L51.656 178.122L49.156 173.791ZM32.7369 162.071L55.8084 148.751L59.1677 154.57L56.3261 156.21L54.6464 153.301L37.3259 163.301L39.0056 166.21L36.0963 167.89L32.7369 162.071Z" fill="#CACFFC"/>
<path d="M94.6274 122.55L97.4691 120.909L112.469 146.89L138.45 131.89L140.09 134.732L111.268 151.373L94.6274 122.55ZM108.44 129.911L122.919 121.552L125.419 125.882L110.94 134.242L108.44 129.911ZM118.438 133.791L132.849 125.471L135.349 129.801L120.938 138.122L118.438 133.791ZM102.019 122.071L125.09 108.751L128.45 114.57L125.608 116.21L123.929 113.301L106.608 123.301L108.288 126.21L105.378 127.89L102.019 122.071Z" fill="#CACFFC"/>
<path d="M163.909 82.5501L166.751 80.9095L181.751 106.89L207.732 91.8903L209.372 94.7319L180.55 111.373L163.909 82.5501ZM177.722 89.9114L192.201 81.552L194.701 85.8822L180.222 94.2415L177.722 89.9114ZM187.72 93.7915L202.131 85.4711L204.631 89.8013L190.22 98.1216L187.72 93.7915ZM171.301 82.0715L194.372 68.7511L197.732 74.5698L194.89 76.2104L193.211 73.3011L175.89 83.3011L177.57 86.2104L174.66 87.8901L171.301 82.0715Z" fill="#CACFFC"/>
<path d="M233.192 42.5501L236.033 40.9095L251.033 66.8903L277.014 51.8903L278.655 54.7319L249.832 71.3725L233.192 42.5501ZM247.004 49.9114L261.483 41.552L263.983 45.8822L249.504 54.2415L247.004 49.9114ZM257.002 53.7915L271.413 45.4711L273.913 49.8013L259.502 58.1216L257.002 53.7915ZM240.583 42.0715L263.655 28.7511L267.014 34.5698L264.172 36.2104L262.493 33.3011L245.172 43.3011L246.852 46.2104L243.942 47.8901L240.583 42.0715Z" fill="#CACFFC"/>
<path d="M203.909 151.832L206.751 150.192L221.751 176.172L247.732 161.172L249.372 164.014L220.55 180.655L203.909 151.832ZM217.722 159.193L232.201 150.834L234.701 155.164L220.222 163.524L217.722 159.193ZM227.72 163.073L242.131 154.753L244.631 159.083L230.22 167.404L227.72 163.073ZM211.301 151.353L234.372 138.033L237.732 143.852L234.89 145.492L233.211 142.583L215.89 152.583L217.57 155.492L214.66 157.172L211.301 151.353Z" fill="#CACFFC"/>
</svg>
