<svg width="264" height="148" viewBox="0 0 264 148" fill="none" xmlns="http://www.w3.org/2000/svg">
<path d="M34.0385 -15.674L45.4186 -12.6819L41.0885 -10.1819L44.4478 -4.36331L38.6292 -1.00393L35.2698 -6.82254L30.9397 -4.32254L34.0385 -15.674ZM39.9399 -28.7337C40.7518 -29.2025 41.5977 -29.2999 42.4775 -29.0261C43.3763 -28.8233 44.0602 -28.316 44.5289 -27.5041L56.1695 -7.34198C56.6383 -6.53008 56.7487 -5.66167 56.5009 -4.73676C56.2721 -3.88299 55.7518 -3.22173 54.9399 -2.75298L34.7778 8.88764C33.9659 9.35639 33.1105 9.4894 32.2116 9.28668C31.3318 9.01281 30.6575 8.46992 30.1888 7.65802L18.5481 -12.5041C18.0794 -13.316 17.9594 -14.1489 18.1882 -15.0026C18.436 -15.9275 18.9659 -16.6244 19.7778 -17.0931L25.7993 -20.5697C25.6203 -21.609 25.7354 -22.6076 26.1445 -23.5655C26.5988 -24.5495 27.277 -25.3019 28.1792 -25.8227C29.0813 -26.3436 30.0494 -26.5417 31.0836 -26.4171C32.1629 -26.3185 33.1078 -25.9319 33.9183 -25.2572L39.9399 -28.7337ZM29.8588 -22.9134C29.4529 -22.6791 29.1927 -22.3484 29.0783 -21.9215C28.964 -21.4947 29.024 -21.0782 29.2583 -20.6723C29.4927 -20.2663 29.8364 -19.9836 30.2893 -19.8241C30.7162 -19.7098 31.1326 -19.7698 31.5385 -20.0041C31.9445 -20.2385 32.2046 -20.5691 32.319 -20.996C32.4074 -21.468 32.3343 -21.907 32.1 -22.3129C31.8656 -22.7189 31.535 -22.979 31.1081 -23.0934C30.6812 -23.2078 30.2648 -23.1478 29.8588 -22.9134ZM25.9397 -12.9828L24.2991 -15.8244L21.4574 -14.1838L33.0981 5.97834L53.2602 -5.66229L41.6196 -25.8244L38.778 -24.1838L40.4186 -21.3422L25.9397 -12.9828Z" fill="#D9DCE1"/>
<path d="M4.75654 93.608L16.1366 96.6001L11.8065 99.1001L15.1658 104.919L9.34724 108.278L5.98786 102.46L1.65774 104.96L4.75654 93.608ZM10.6579 80.5483C11.4698 80.0795 12.3157 79.9821 13.1955 80.256C14.0944 80.4587 14.7782 80.966 15.2469 81.7779L26.8875 101.94C27.3563 102.752 27.4668 103.62 27.2189 104.545C26.9902 105.399 26.4698 106.06 25.6579 106.529L5.49578 118.17C4.68388 118.638 3.82849 118.771 2.92962 118.569C2.04982 118.295 1.37554 117.752 0.906787 116.94L-10.7338 96.7779C-11.2026 95.966 -11.3226 95.1332 -11.0938 94.2794C-10.846 93.3545 -10.3161 92.6577 -9.50422 92.1889L-3.48264 88.7124C-3.66169 87.6731 -3.54662 86.6744 -3.13744 85.7165C-2.68314 84.7325 -2.00494 83.9801 -1.10283 83.4593C-0.200722 82.9385 0.767427 82.7404 1.80161 82.865C2.88091 82.9635 3.82582 83.3501 4.63635 84.0249L10.6579 80.5483ZM0.576855 86.3686C0.170906 86.603 -0.0892601 86.9336 -0.203643 87.3605C-0.318026 87.7874 -0.25803 88.2038 -0.023655 88.6097C0.21072 89.0157 0.55437 89.2984 1.00729 89.4579C1.43418 89.5723 1.85059 89.5123 2.25654 89.2779C2.66249 89.0435 2.92266 88.7129 3.03704 88.286C3.12538 87.814 3.05237 87.3751 2.81799 86.9691C2.58362 86.5632 2.25299 86.303 1.8261 86.1886C1.39922 86.0742 0.982805 86.1342 0.576855 86.3686ZM-3.34226 96.2992L-4.98289 93.4576L-7.82453 95.0982L3.81609 115.26L23.9782 103.62L12.3376 83.4576L9.49597 85.0982L11.1366 87.9399L-3.34226 96.2992Z" fill="#D9DCE1"/>
<path d="M74.0385 53.608L85.4186 56.6001L81.0885 59.1001L84.4478 64.9187L78.6292 68.2781L75.2698 62.4595L70.9397 64.9595L74.0385 53.608ZM79.9399 40.5483C80.7518 40.0795 81.5977 39.9821 82.4775 40.256C83.3763 40.4587 84.0602 40.966 84.5289 41.7779L96.1695 61.9401C96.6383 62.752 96.7487 63.6204 96.5009 64.5453C96.2721 65.399 95.7518 66.0603 94.9399 66.529L74.7778 78.1697C73.9659 78.6384 73.1105 78.7714 72.2116 78.5687C71.3318 78.2948 70.6575 77.752 70.1888 76.9401L58.5481 56.7779C58.0794 55.966 57.9594 55.1332 58.1882 54.2794C58.436 53.3545 58.9659 52.6577 59.7778 52.1889L65.7993 48.7123C65.6203 47.673 65.7354 46.6744 66.1445 45.7165C66.5988 44.7325 67.277 43.9801 68.1792 43.4593C69.0813 42.9385 70.0494 42.7403 71.0836 42.8649C72.1629 42.9635 73.1078 43.3501 73.9183 44.0248L79.9399 40.5483ZM69.8588 46.3686C69.4529 46.603 69.1927 46.9336 69.0783 47.3605C68.964 47.7874 69.024 48.2038 69.2583 48.6097C69.4927 49.0157 69.8364 49.2984 70.2893 49.4579C70.7162 49.5723 71.1326 49.5123 71.5385 49.2779C71.9445 49.0435 72.2046 48.7129 72.319 48.286C72.4074 47.814 72.3343 47.3751 72.1 46.9691C71.8656 46.5632 71.535 46.303 71.1081 46.1886C70.6812 46.0742 70.2648 46.1342 69.8588 46.3686ZM65.9397 56.2992L64.2991 53.4576L61.4574 55.0982L73.0981 75.2604L93.2602 63.6197L81.6196 43.4576L78.778 45.0982L80.4186 47.9399L65.9397 56.2992Z" fill="#D9DCE1"/>
<path d="M143.321 13.608L154.701 16.6001L150.371 19.1001L153.73 24.9187L147.911 28.2781L144.552 22.4595L140.222 24.9595L143.321 13.608ZM149.222 0.548282C150.034 0.0795318 150.88 -0.0179075 151.76 0.255964C152.659 0.458688 153.342 0.966 153.811 1.7779L165.452 21.9401C165.921 22.752 166.031 23.6204 165.783 24.5453C165.554 25.399 165.034 26.0603 164.222 26.529L144.06 38.1697C143.248 38.6384 142.393 38.7714 141.494 38.5687C140.614 38.2948 139.94 37.752 139.471 36.9401L127.83 16.7779C127.362 15.966 127.242 15.1332 127.47 14.2794C127.718 13.3545 128.248 12.6577 129.06 12.1889L135.082 8.71234C134.903 7.67305 135.018 6.67443 135.427 5.7165C135.881 4.73253 136.559 3.98012 137.461 3.45929C138.363 2.93846 139.332 2.74034 140.366 2.86494C141.445 2.9635 142.39 3.35013 143.201 4.02484L149.222 0.548282ZM139.141 6.36859C138.735 6.60297 138.475 6.9336 138.361 7.36048C138.246 7.78736 138.306 8.20378 138.541 8.60973C138.775 9.01568 139.119 9.2984 139.572 9.45789C139.998 9.57227 140.415 9.51227 140.821 9.2779C141.227 9.04352 141.487 8.71289 141.601 8.28601C141.69 7.81402 141.617 7.37505 141.382 6.9691C141.148 6.56316 140.817 6.30299 140.39 6.18861C139.963 6.07422 139.547 6.13422 139.141 6.36859ZM135.222 16.2992L133.581 13.4576L130.74 15.0982L142.38 35.2604L162.542 23.6197L150.902 3.45759L148.06 5.09821L149.701 7.93986L135.222 16.2992Z" fill="#D9DCE1"/>
<path d="M44.7565 162.89L56.1366 165.882L51.8065 168.382L55.1658 174.201L49.3472 177.56L45.9879 171.742L41.6577 174.242L44.7565 162.89ZM50.6579 149.83C51.4698 149.362 52.3157 149.264 53.1955 149.538C54.0944 149.741 54.7782 150.248 55.2469 151.06L66.8875 171.222C67.3563 172.034 67.4668 172.902 67.2189 173.827C66.9902 174.681 66.4698 175.342 65.6579 175.811L45.4958 187.452C44.6839 187.92 43.8285 188.053 42.9296 187.851C42.0498 187.577 41.3755 187.034 40.9068 186.222L29.2662 166.06C28.7974 165.248 28.6774 164.415 28.9062 163.561C29.154 162.637 29.6839 161.94 30.4958 161.471L36.5174 157.994C36.3383 156.955 36.4534 155.956 36.8626 154.999C37.3169 154.015 37.9951 153.262 38.8972 152.741C39.7993 152.22 40.7674 152.022 41.8016 152.147C42.8809 152.246 43.8258 152.632 44.6363 153.307L50.6579 149.83ZM40.5769 155.651C40.1709 155.885 39.9107 156.216 39.7964 156.643C39.682 157.069 39.742 157.486 39.9763 157.892C40.2107 158.298 40.5544 158.58 41.0073 158.74C41.4342 158.854 41.8506 158.794 42.2565 158.56C42.6625 158.326 42.9227 157.995 43.037 157.568C43.1254 157.096 43.0524 156.657 42.818 156.251C42.5836 155.845 42.253 155.585 41.8261 155.471C41.3992 155.356 40.9828 155.416 40.5769 155.651ZM36.6577 165.581L35.0171 162.74L32.1755 164.38L43.8161 184.542L63.9782 172.902L52.3376 152.74L49.496 154.38L51.1366 157.222L36.6577 165.581Z" fill="#D9DCE1"/>
<path d="M114.039 122.89L125.419 125.882L121.088 128.382L124.448 134.201L118.629 137.56L115.27 131.742L110.94 134.242L114.039 122.89ZM119.94 109.83C120.752 109.362 121.598 109.264 122.477 109.538C123.376 109.741 124.06 110.248 124.529 111.06L136.17 131.222C136.638 132.034 136.749 132.902 136.501 133.827C136.272 134.681 135.752 135.342 134.94 135.811L114.778 147.452C113.966 147.92 113.11 148.053 112.212 147.851C111.332 147.577 110.658 147.034 110.189 146.222L98.5481 126.06C98.0794 125.248 97.9594 124.415 98.1882 123.561C98.436 122.637 98.9659 121.94 99.7778 121.471L105.799 117.994C105.62 116.955 105.735 115.956 106.145 114.999C106.599 114.015 107.277 113.262 108.179 112.741C109.081 112.22 110.049 112.022 111.084 112.147C112.163 112.246 113.108 112.632 113.918 113.307L119.94 109.83ZM109.859 115.651C109.453 115.885 109.193 116.216 109.078 116.643C108.964 117.069 109.024 117.486 109.258 117.892C109.493 118.298 109.836 118.58 110.289 118.74C110.716 118.854 111.133 118.794 111.539 118.56C111.944 118.326 112.205 117.995 112.319 117.568C112.407 117.096 112.334 116.657 112.1 116.251C111.866 115.845 111.535 115.585 111.108 115.471C110.681 115.356 110.265 115.416 109.859 115.651ZM105.94 125.581L104.299 122.74L101.457 124.38L113.098 144.542L133.26 132.902L121.62 112.74L118.778 114.38L120.419 117.222L105.94 125.581Z" fill="#D9DCE1"/>
<path d="M183.321 82.8901L194.701 85.8822L190.371 88.3822L193.73 94.2008L187.911 97.5601L184.552 91.7415L180.222 94.2415L183.321 82.8901ZM189.222 69.8303C190.034 69.3616 190.88 69.2641 191.76 69.538C192.659 69.7407 193.342 70.248 193.811 71.0599L205.452 91.2221C205.921 92.034 206.031 92.9024 205.783 93.8273C205.554 94.6811 205.034 95.3423 204.222 95.8111L184.06 107.452C183.248 107.92 182.393 108.053 181.494 107.851C180.614 107.577 179.94 107.034 179.471 106.222L167.83 86.0599C167.362 85.248 167.242 84.4152 167.47 83.5614C167.718 82.6365 168.248 81.9397 169.06 81.471L175.082 77.9944C174.903 76.9551 175.018 75.9565 175.427 74.9985C175.881 74.0146 176.559 73.2622 177.461 72.7413C178.363 72.2205 179.332 72.0224 180.366 72.147C181.445 72.2455 182.39 72.6322 183.201 73.3069L189.222 69.8303ZM179.141 75.6506C178.735 75.885 178.475 76.2156 178.361 76.6425C178.246 77.0694 178.306 77.4858 178.541 77.8918C178.775 78.2977 179.119 78.5804 179.572 78.7399C179.998 78.8543 180.415 78.7943 180.821 78.5599C181.227 78.3256 181.487 77.9949 181.601 77.5681C181.69 77.0961 181.617 76.6571 181.382 76.2511C181.148 75.8452 180.817 75.585 180.39 75.4706C179.963 75.3563 179.547 75.4163 179.141 75.6506ZM175.222 85.5813L173.581 82.7396L170.74 84.3803L182.38 104.542L202.542 92.9018L190.902 72.7396L188.06 74.3803L189.701 77.2219L175.222 85.5813Z" fill="#D9DCE1"/>
<path d="M252.603 42.8901L263.983 45.8822L259.653 48.3822L263.012 54.2008L257.193 57.5601L253.834 51.7415L249.504 54.2415L252.603 42.8901ZM258.504 29.8303C259.316 29.3616 260.162 29.2641 261.042 29.538C261.941 29.7407 262.624 30.248 263.093 31.0599L274.734 51.2221C275.202 52.034 275.313 52.9024 275.065 53.8273C274.836 54.6811 274.316 55.3423 273.504 55.8111L253.342 67.4517C252.53 67.9205 251.675 68.0535 250.776 67.8508C249.896 67.5769 249.222 67.034 248.753 66.2221L237.112 46.0599C236.644 45.248 236.524 44.4152 236.752 43.5614C237 42.6365 237.53 41.9397 238.342 41.471L244.364 37.9944C244.184 36.9551 244.3 35.9565 244.709 34.9985C245.163 34.0146 245.841 33.2622 246.743 32.7413C247.645 32.2205 248.614 32.0224 249.648 32.147C250.727 32.2455 251.672 32.6322 252.483 33.3069L258.504 29.8303ZM248.423 35.6506C248.017 35.885 247.757 36.2156 247.643 36.6425C247.528 37.0694 247.588 37.4858 247.823 37.8918C248.057 38.2977 248.401 38.5804 248.853 38.7399C249.28 38.8543 249.697 38.7943 250.103 38.5599C250.509 38.3256 250.769 37.9949 250.883 37.5681C250.972 37.0961 250.899 36.6571 250.664 36.2511C250.43 35.8452 250.099 35.585 249.672 35.4706C249.245 35.3563 248.829 35.4163 248.423 35.6506ZM244.504 45.5813L242.863 42.7396L240.022 44.3803L251.662 64.5424L271.824 52.9018L260.184 32.7396L257.342 34.3803L258.983 37.2219L244.504 45.5813Z" fill="#D9DCE1"/>
<path d="M223.321 152.172L234.701 155.164L230.371 157.664L233.73 163.483L227.911 166.842L224.552 161.024L220.222 163.524L223.321 152.172ZM229.222 139.112C230.034 138.644 230.88 138.546 231.76 138.82C232.659 139.023 233.342 139.53 233.811 140.342L245.452 160.504C245.921 161.316 246.031 162.184 245.783 163.109C245.554 163.963 245.034 164.624 244.222 165.093L224.06 176.734C223.248 177.202 222.393 177.336 221.494 177.133C220.614 176.859 219.94 176.316 219.471 175.504L207.83 155.342C207.362 154.53 207.242 153.697 207.47 152.843C207.718 151.919 208.248 151.222 209.06 150.753L215.082 147.276C214.903 146.237 215.018 145.239 215.427 144.281C215.881 143.297 216.559 142.544 217.461 142.023C218.363 141.503 219.332 141.304 220.366 141.429C221.445 141.528 222.39 141.914 223.201 142.589L229.222 139.112ZM219.141 144.933C218.735 145.167 218.475 145.498 218.361 145.925C218.246 146.351 218.306 146.768 218.541 147.174C218.775 147.58 219.119 147.862 219.572 148.022C219.998 148.136 220.415 148.076 220.821 147.842C221.227 147.608 221.487 147.277 221.601 146.85C221.69 146.378 221.617 145.939 221.382 145.533C221.148 145.127 220.817 144.867 220.39 144.753C219.963 144.638 219.547 144.698 219.141 144.933ZM215.222 154.863L213.581 152.022L210.74 153.662L222.38 173.824L242.542 162.184L230.902 142.022L228.06 143.662L229.701 146.504L215.222 154.863Z" fill="#D9DCE1"/>
</svg>
