<svg width="264" height="148" viewBox="0 0 264 148" fill="none" xmlns="http://www.w3.org/2000/svg">
<path d="M39.94 -28.7337C40.7519 -29.2025 41.5978 -29.2999 42.4776 -29.0261C43.3765 -28.8233 44.0603 -28.316 44.529 -27.5041L56.1697 -7.34198C56.6384 -6.53008 56.7489 -5.66167 56.501 -4.73676C56.2723 -3.88299 55.7519 -3.22173 54.94 -2.75298L34.7779 8.88764C33.966 9.35639 33.1106 9.4894 32.2117 9.28668C31.3319 9.01281 30.6576 8.46992 30.1889 7.65802L18.5483 -12.5041C18.0795 -13.316 17.9595 -14.1489 18.1883 -15.0026C18.4361 -15.9275 18.966 -16.6244 19.7779 -17.0931L25.7995 -20.5697C25.6204 -21.609 25.7355 -22.6076 26.1447 -23.5655C26.599 -24.5495 27.2772 -25.3019 28.1793 -25.8227C29.0814 -26.3436 30.0495 -26.5417 31.0837 -26.4171C32.163 -26.3185 33.1079 -25.9319 33.9185 -25.2572L39.94 -28.7337ZM29.859 -22.9134C29.453 -22.6791 29.2059 -22.3259 29.1175 -21.8539C29.0031 -21.427 29.0631 -21.0106 29.2975 -20.6046C29.5058 -20.2438 29.8365 -19.9836 30.2894 -19.8241C30.7163 -19.7098 31.1327 -19.7698 31.5386 -20.0041C31.9446 -20.2385 32.2048 -20.5691 32.3191 -20.996C32.4075 -21.468 32.3475 -21.8844 32.1392 -22.2453C31.9048 -22.6512 31.5742 -22.9114 31.1473 -23.0258C30.6943 -23.1853 30.2649 -23.1478 29.859 -22.9134ZM25.9398 -12.9828L24.2992 -15.8244L21.4576 -14.1838L33.0982 5.97834L53.2603 -5.66229L41.6197 -25.8244L38.7781 -24.1838L40.4187 -21.3422L25.9398 -12.9828ZM41.5386 -2.68362L48.7781 -6.86331L47.0984 -9.77261L39.859 -5.59293L41.5386 -2.68362ZM36.5386 -11.3439L43.7781 -15.5236L42.0984 -18.4329L34.859 -14.2532L36.5386 -11.3439ZM31.608 -6.60274L33.0288 -7.42305L29.7085 -13.174L26.7992 -11.4943L27.6195 -10.0735L29.108 -10.9329L31.608 -6.60274ZM35.0468 -4.70906L31.7992 -2.83406L32.6195 -1.41324L35.5288 -3.09293L34.3383 1.56372L35.1195 2.91689L39.4497 0.416888L38.6293 -1.00393L35.923 0.558565L36.9134 -3.35104C36.9636 -3.68073 36.9106 -3.9809 36.7543 -4.25153C36.5721 -4.56727 36.3161 -4.75024 35.9864 -4.80046C35.6757 -4.92182 35.3626 -4.89135 35.0468 -4.70906Z" fill="#B9F4E4"/>
<path d="M10.6579 80.5483C11.4698 80.0795 12.3157 79.9821 13.1955 80.256C14.0944 80.4587 14.7782 80.966 15.2469 81.7779L26.8875 101.94C27.3563 102.752 27.4668 103.62 27.2189 104.545C26.9902 105.399 26.4698 106.06 25.6579 106.529L5.49578 118.17C4.68388 118.638 3.82849 118.771 2.92962 118.569C2.04982 118.295 1.37554 117.752 0.906787 116.94L-10.7338 96.7779C-11.2026 95.966 -11.3226 95.1332 -11.0938 94.2794C-10.846 93.3545 -10.3161 92.6577 -9.50422 92.1889L-3.48264 88.7124C-3.66169 87.6731 -3.54662 86.6744 -3.13744 85.7165C-2.68314 84.7325 -2.00494 83.9801 -1.10283 83.4593C-0.200722 82.9385 0.767427 82.7404 1.80161 82.865C2.88091 82.9635 3.82582 83.3501 4.63635 84.0249L10.6579 80.5483ZM0.576855 86.3686C0.170906 86.603 -0.0762393 86.9562 -0.164581 87.4282C-0.278964 87.855 -0.218967 88.2715 0.0154075 88.6774C0.223741 89.0382 0.55437 89.2984 1.00729 89.4579C1.43418 89.5723 1.85059 89.5123 2.25654 89.2779C2.66249 89.0435 2.92266 88.7129 3.03704 88.286C3.12538 87.814 3.06539 87.3976 2.85705 87.0368C2.62268 86.6308 2.29205 86.3707 1.86517 86.2563C1.41224 86.0968 0.982805 86.1342 0.576855 86.3686ZM-3.34226 96.2992L-4.98289 93.4576L-7.82453 95.0982L3.81609 115.26L23.9782 103.62L12.3376 83.4576L9.49597 85.0982L11.1366 87.9399L-3.34226 96.2992ZM12.2565 106.598L19.496 102.419L17.8163 99.5094L10.5769 103.689L12.2565 106.598ZM7.25654 97.9382L14.496 93.7585L12.8163 90.8492L5.57686 95.0289L7.25654 97.9382ZM2.32591 102.679L3.74673 101.859L0.426416 96.108L-2.48289 97.7877L-1.66258 99.2086L-0.174094 98.3492L2.32591 102.679ZM5.76471 104.573L2.51711 106.448L3.33742 107.869L6.24673 106.189L5.05617 110.846L5.83742 112.199L10.1676 109.699L9.34724 108.278L6.64091 109.841L7.63129 105.931C7.68151 105.601 7.62849 105.301 7.47224 105.031C7.28995 104.715 7.03395 104.532 6.70426 104.482C6.39363 104.36 6.08045 104.391 5.76471 104.573Z" fill="#B9F4E4"/>
<path d="M79.94 40.5483C80.7519 40.0795 81.5978 39.9821 82.4776 40.256C83.3765 40.4587 84.0603 40.966 84.529 41.7779L96.1697 61.9401C96.6384 62.752 96.7489 63.6204 96.501 64.5453C96.2723 65.399 95.7519 66.0603 94.94 66.529L74.7779 78.1697C73.966 78.6384 73.1106 78.7714 72.2117 78.5687C71.3319 78.2948 70.6576 77.752 70.1889 76.9401L58.5483 56.7779C58.0795 55.966 57.9595 55.1332 58.1883 54.2794C58.4361 53.3545 58.966 52.6577 59.7779 52.1889L65.7995 48.7123C65.6204 47.673 65.7355 46.6744 66.1447 45.7165C66.599 44.7325 67.2772 43.9801 68.1793 43.4593C69.0814 42.9385 70.0495 42.7403 71.0837 42.8649C72.163 42.9635 73.1079 43.3501 73.9185 44.0248L79.94 40.5483ZM69.859 46.3686C69.453 46.603 69.2059 46.9562 69.1175 47.4281C69.0031 47.855 69.0631 48.2714 69.2975 48.6774C69.5058 49.0382 69.8365 49.2984 70.2894 49.4579C70.7163 49.5723 71.1327 49.5123 71.5386 49.2779C71.9446 49.0435 72.2048 48.7129 72.3191 48.286C72.4075 47.814 72.3475 47.3976 72.1392 47.0368C71.9048 46.6308 71.5742 46.3706 71.1473 46.2563C70.6943 46.0968 70.2649 46.1342 69.859 46.3686ZM65.9398 56.2992L64.2992 53.4576L61.4576 55.0982L73.0982 75.2604L93.2603 63.6197L81.6197 43.4576L78.7781 45.0982L80.4187 47.9399L65.9398 56.2992ZM81.5386 66.5984L88.7781 62.4187L87.0984 59.5094L79.859 63.6891L81.5386 66.5984ZM76.5386 57.9382L83.7781 53.7585L82.0984 50.8492L74.859 55.0288L76.5386 57.9382ZM71.608 62.6793L73.0288 61.859L69.7085 56.108L66.7992 57.7877L67.6195 59.2085L69.108 58.3492L71.608 62.6793ZM75.0468 64.573L71.7992 66.448L72.6195 67.8688L75.5288 66.1891L74.3383 70.8458L75.1195 72.1989L79.4497 69.6989L78.6293 68.2781L75.923 69.8406L76.9134 65.931C76.9636 65.6013 76.9106 65.3011 76.7543 65.0305C76.5721 64.7148 76.3161 64.5318 75.9864 64.4816C75.6757 64.3602 75.3626 64.3907 75.0468 64.573Z" fill="#B9F4E4"/>
<path d="M149.222 0.548282C150.034 0.0795318 150.88 -0.0179075 151.76 0.255964C152.659 0.458688 153.342 0.966 153.811 1.7779L165.452 21.9401C165.921 22.752 166.031 23.6204 165.783 24.5453C165.554 25.399 165.034 26.0603 164.222 26.529L144.06 38.1697C143.248 38.6384 142.393 38.7714 141.494 38.5687C140.614 38.2948 139.94 37.752 139.471 36.9401L127.83 16.7779C127.362 15.966 127.242 15.1332 127.47 14.2794C127.718 13.3545 128.248 12.6577 129.06 12.1889L135.082 8.71234C134.903 7.67305 135.018 6.67443 135.427 5.7165C135.881 4.73253 136.559 3.98012 137.461 3.45929C138.363 2.93846 139.332 2.74034 140.366 2.86494C141.445 2.9635 142.39 3.35013 143.201 4.02484L149.222 0.548282ZM139.141 6.36859C138.735 6.60297 138.488 6.95615 138.4 7.42814C138.285 7.85502 138.345 8.27144 138.58 8.67739C138.788 9.03823 139.119 9.2984 139.572 9.45789C139.998 9.57227 140.415 9.51227 140.821 9.2779C141.227 9.04352 141.487 8.71289 141.601 8.28601C141.69 7.81402 141.63 7.39761 141.421 7.03676C141.187 6.63081 140.856 6.37065 140.429 6.25626C139.976 6.09678 139.547 6.13422 139.141 6.36859ZM135.222 16.2992L133.581 13.4576L130.74 15.0982L142.38 35.2604L162.542 23.6197L150.902 3.45759L148.06 5.09821L149.701 7.93986L135.222 16.2992ZM150.821 26.5984L158.06 22.4187L156.38 19.5094L149.141 23.6891L150.821 26.5984ZM145.821 17.9382L153.06 13.7585L151.38 10.8492L144.141 15.0288L145.821 17.9382ZM140.89 22.6793L142.311 21.859L138.991 16.108L136.081 17.7877L136.902 19.2085L138.39 18.3492L140.89 22.6793ZM144.329 24.573L141.081 26.448L141.902 27.8688L144.811 26.1891L143.62 30.8458L144.402 32.1989L148.732 29.6989L147.911 28.2781L145.205 29.8406L146.196 25.931C146.246 25.6013 146.193 25.3011 146.036 25.0305C145.854 24.7148 145.598 24.5318 145.268 24.4816C144.958 24.3602 144.645 24.3907 144.329 24.573Z" fill="#B9F4E4"/>
<path d="M50.6579 149.83C51.4698 149.362 52.3157 149.264 53.1955 149.538C54.0944 149.741 54.7782 150.248 55.2469 151.06L66.8875 171.222C67.3563 172.034 67.4668 172.902 67.2189 173.827C66.9902 174.681 66.4698 175.342 65.6579 175.811L45.4958 187.452C44.6839 187.92 43.8285 188.053 42.9296 187.851C42.0498 187.577 41.3755 187.034 40.9068 186.222L29.2662 166.06C28.7974 165.248 28.6774 164.415 28.9062 163.561C29.154 162.637 29.6839 161.94 30.4958 161.471L36.5174 157.994C36.3383 156.955 36.4534 155.956 36.8626 154.999C37.3169 154.015 37.9951 153.262 38.8972 152.741C39.7993 152.22 40.7674 152.022 41.8016 152.147C42.8809 152.246 43.8258 152.632 44.6363 153.307L50.6579 149.83ZM40.5769 155.651C40.1709 155.885 39.9238 156.238 39.8354 156.71C39.721 157.137 39.781 157.553 40.0154 157.959C40.2237 158.32 40.5544 158.58 41.0073 158.74C41.4342 158.854 41.8506 158.794 42.2565 158.56C42.6625 158.326 42.9227 157.995 43.037 157.568C43.1254 157.096 43.0654 156.68 42.8571 156.319C42.6227 155.913 42.292 155.653 41.8652 155.538C41.4122 155.379 40.9828 155.416 40.5769 155.651ZM36.6577 165.581L35.0171 162.74L32.1755 164.38L43.8161 184.542L63.9782 172.902L52.3376 152.74L49.496 154.38L51.1366 157.222L36.6577 165.581ZM52.2565 175.88L59.496 171.701L57.8163 168.791L50.5769 172.971L52.2565 175.88ZM47.2565 167.22L54.496 163.04L52.8163 160.131L45.5769 164.311L47.2565 167.22ZM42.3259 171.961L43.7467 171.141L40.4264 165.39L37.5171 167.07L38.3374 168.491L39.8259 167.631L42.3259 171.961ZM45.7647 173.855L42.5171 175.73L43.3374 177.151L46.2467 175.471L45.0562 180.128L45.8374 181.481L50.1676 178.981L49.3472 177.56L46.6409 179.123L47.6313 175.213C47.6815 174.883 47.6285 174.583 47.4722 174.313C47.2899 173.997 47.034 173.814 46.7043 173.764C46.3936 173.642 46.0804 173.673 45.7647 173.855Z" fill="#B9F4E4"/>
<path d="M119.94 109.83C120.752 109.362 121.598 109.264 122.477 109.538C123.376 109.741 124.06 110.248 124.529 111.06L136.17 131.222C136.638 132.034 136.749 132.902 136.501 133.827C136.272 134.681 135.752 135.342 134.94 135.811L114.778 147.452C113.966 147.92 113.11 148.053 112.212 147.851C111.332 147.577 110.658 147.034 110.189 146.222L98.5481 126.06C98.0794 125.248 97.9594 124.415 98.1882 123.561C98.436 122.637 98.9659 121.94 99.7778 121.471L105.799 117.994C105.62 116.955 105.735 115.956 106.145 114.999C106.599 114.015 107.277 113.262 108.179 112.741C109.081 112.22 110.049 112.022 111.084 112.147C112.163 112.246 113.108 112.632 113.918 113.307L119.94 109.83ZM109.859 115.651C109.453 115.885 109.206 116.238 109.117 116.71C109.003 117.137 109.063 117.553 109.297 117.959C109.506 118.32 109.836 118.58 110.289 118.74C110.716 118.854 111.133 118.794 111.539 118.56C111.944 118.326 112.205 117.995 112.319 117.568C112.407 117.096 112.347 116.68 112.139 116.319C111.905 115.913 111.574 115.653 111.147 115.538C110.694 115.379 110.265 115.416 109.859 115.651ZM105.94 125.581L104.299 122.74L101.457 124.38L113.098 144.542L133.26 132.902L121.62 112.74L118.778 114.38L120.419 117.222L105.94 125.581ZM121.539 135.88L128.778 131.701L127.098 128.791L119.859 132.971L121.539 135.88ZM116.539 127.22L123.778 123.04L122.098 120.131L114.859 124.311L116.539 127.22ZM111.608 131.961L113.029 131.141L109.708 125.39L106.799 127.07L107.619 128.491L109.108 127.631L111.608 131.961ZM115.047 133.855L111.799 135.73L112.619 137.151L115.529 135.471L114.338 140.128L115.119 141.481L119.45 138.981L118.629 137.56L115.923 139.123L116.913 135.213C116.963 134.883 116.91 134.583 116.754 134.313C116.572 133.997 116.316 133.814 115.986 133.764C115.676 133.642 115.362 133.673 115.047 133.855Z" fill="#B9F4E4"/>
<path d="M189.222 69.8303C190.034 69.3616 190.88 69.2641 191.76 69.538C192.659 69.7407 193.342 70.248 193.811 71.0599L205.452 91.2221C205.921 92.034 206.031 92.9024 205.783 93.8273C205.554 94.6811 205.034 95.3423 204.222 95.8111L184.06 107.452C183.248 107.92 182.393 108.053 181.494 107.851C180.614 107.577 179.94 107.034 179.471 106.222L167.83 86.0599C167.362 85.248 167.242 84.4152 167.47 83.5614C167.718 82.6365 168.248 81.9397 169.06 81.471L175.082 77.9944C174.903 76.9551 175.018 75.9565 175.427 74.9985C175.881 74.0146 176.559 73.2622 177.461 72.7413C178.363 72.2205 179.332 72.0224 180.366 72.147C181.445 72.2455 182.39 72.6322 183.201 73.3069L189.222 69.8303ZM179.141 75.6506C178.735 75.885 178.488 76.2382 178.4 76.7102C178.285 77.1371 178.345 77.5535 178.58 77.9594C178.788 78.3203 179.119 78.5804 179.572 78.7399C179.998 78.8543 180.415 78.7943 180.821 78.5599C181.227 78.3256 181.487 77.9949 181.601 77.5681C181.69 77.0961 181.63 76.6797 181.421 76.3188C181.187 75.9129 180.856 75.6527 180.429 75.5383C179.976 75.3788 179.547 75.4163 179.141 75.6506ZM175.222 85.5813L173.581 82.7396L170.74 84.3803L182.38 104.542L202.542 92.9018L190.902 72.7396L188.06 74.3803L189.701 77.2219L175.222 85.5813ZM190.821 95.8804L198.06 91.7008L196.38 88.7915L189.141 92.9711L190.821 95.8804ZM185.821 87.2202L193.06 83.0405L191.38 80.1312L184.141 84.3109L185.821 87.2202ZM180.89 91.9613L182.311 91.141L178.991 85.3901L176.081 87.0698L176.902 88.4906L178.39 87.6312L180.89 91.9613ZM184.329 93.855L181.081 95.73L181.902 97.1508L184.811 95.4711L183.62 100.128L184.402 101.481L188.732 98.981L187.911 97.5601L185.205 99.1226L186.196 95.213C186.246 94.8833 186.193 94.5832 186.036 94.3125C185.854 93.9968 185.598 93.8138 185.268 93.7636C184.958 93.6423 184.645 93.6727 184.329 93.855Z" fill="#B9F4E4"/>
<path d="M258.504 29.8303C259.316 29.3616 260.162 29.2641 261.042 29.538C261.941 29.7407 262.624 30.248 263.093 31.0599L274.734 51.2221C275.202 52.034 275.313 52.9024 275.065 53.8273C274.836 54.6811 274.316 55.3423 273.504 55.8111L253.342 67.4517C252.53 67.9205 251.675 68.0535 250.776 67.8508C249.896 67.5769 249.222 67.034 248.753 66.2221L237.112 46.0599C236.644 45.248 236.524 44.4152 236.752 43.5614C237 42.6365 237.53 41.9397 238.342 41.471L244.364 37.9944C244.184 36.9551 244.3 35.9565 244.709 34.9985C245.163 34.0146 245.841 33.2622 246.743 32.7413C247.645 32.2205 248.614 32.0224 249.648 32.147C250.727 32.2455 251.672 32.6322 252.483 33.3069L258.504 29.8303ZM248.423 35.6506C248.017 35.885 247.77 36.2382 247.682 36.7102C247.567 37.1371 247.627 37.5535 247.862 37.9594C248.07 38.3203 248.401 38.5804 248.853 38.7399C249.28 38.8543 249.697 38.7943 250.103 38.5599C250.509 38.3256 250.769 37.9949 250.883 37.5681C250.972 37.0961 250.912 36.6797 250.703 36.3188C250.469 35.9129 250.138 35.6527 249.711 35.5383C249.258 35.3788 248.829 35.4163 248.423 35.6506ZM244.504 45.5813L242.863 42.7396L240.022 44.3803L251.662 64.5424L271.824 52.9018L260.184 32.7396L257.342 34.3803L258.983 37.2219L244.504 45.5813ZM260.103 55.8804L267.342 51.7008L265.662 48.7915L258.423 52.9711L260.103 55.8804ZM255.103 47.2202L262.342 43.0405L260.662 40.1312L253.423 44.3109L255.103 47.2202ZM250.172 51.9613L251.593 51.141L248.273 45.3901L245.363 47.0698L246.184 48.4906L247.672 47.6312L250.172 51.9613ZM253.611 53.855L250.363 55.73L251.184 57.1508L254.093 55.4711L252.902 60.1278L253.684 61.481L258.014 58.981L257.193 57.5601L254.487 59.1226L255.477 55.213C255.528 54.8833 255.475 54.5832 255.318 54.3125C255.136 53.9968 254.88 53.8138 254.55 53.7636C254.24 53.6423 253.927 53.6727 253.611 53.855Z" fill="#B9F4E4"/>
<path d="M229.222 139.112C230.034 138.644 230.88 138.546 231.76 138.82C232.659 139.023 233.342 139.53 233.811 140.342L245.452 160.504C245.921 161.316 246.031 162.184 245.783 163.109C245.554 163.963 245.034 164.624 244.222 165.093L224.06 176.734C223.248 177.202 222.393 177.336 221.494 177.133C220.614 176.859 219.94 176.316 219.471 175.504L207.83 155.342C207.362 154.53 207.242 153.697 207.47 152.843C207.718 151.919 208.248 151.222 209.06 150.753L215.082 147.276C214.903 146.237 215.018 145.239 215.427 144.281C215.881 143.297 216.559 142.544 217.461 142.023C218.363 141.503 219.332 141.304 220.366 141.429C221.445 141.528 222.39 141.914 223.201 142.589L229.222 139.112ZM219.141 144.933C218.735 145.167 218.488 145.52 218.4 145.992C218.285 146.419 218.345 146.836 218.58 147.241C218.788 147.602 219.119 147.862 219.572 148.022C219.998 148.136 220.415 148.076 220.821 147.842C221.227 147.608 221.487 147.277 221.601 146.85C221.69 146.378 221.63 145.962 221.421 145.601C221.187 145.195 220.856 144.935 220.429 144.82C219.976 144.661 219.547 144.698 219.141 144.933ZM215.222 154.863L213.581 152.022L210.74 153.662L222.38 173.824L242.542 162.184L230.902 142.022L228.06 143.662L229.701 146.504L215.222 154.863ZM230.821 165.162L238.06 160.983L236.38 158.073L229.141 162.253L230.821 165.162ZM225.821 156.502L233.06 152.323L231.38 149.413L224.141 153.593L225.821 156.502ZM220.89 161.243L222.311 160.423L218.991 154.672L216.081 156.352L216.902 157.773L218.39 156.913L220.89 161.243ZM224.329 163.137L221.081 165.012L221.902 166.433L224.811 164.753L223.62 169.41L224.402 170.763L228.732 168.263L227.911 166.842L225.205 168.405L226.196 164.495C226.246 164.165 226.193 163.865 226.036 163.595C225.854 163.279 225.598 163.096 225.268 163.046C224.958 162.924 224.645 162.955 224.329 163.137Z" fill="#B9F4E4"/>
</svg>
