<svg width="40" height="40" viewBox="0 0 40 40" fill="none" xmlns="http://www.w3.org/2000/svg">
<path opacity="0.8" d="M23.3803 14H27.6197C28.1784 14 28.6549 14.214 29.0493 14.642C29.4765 15.037 29.6901 15.5144 29.6901 16.0741V18.1975H33.9296C34.4883 18.1975 34.9648 18.4115 35.3592 18.8395C35.7864 19.2346 36 19.7284 36 20.321V31.8765C36 32.4691 35.7864 32.9794 35.3592 33.4074C34.9648 33.8025 34.4883 34 33.9296 34H17.0704C16.5117 34 16.0188 33.8025 15.5915 33.4074C15.1972 32.9794 15 32.4691 15 31.8765V20.321C15 19.7284 15.1972 19.2346 15.5915 18.8395C16.0188 18.4115 16.5117 18.1975 17.0704 18.1975H21.3099V16.0741C21.3099 15.5144 21.507 15.037 21.9014 14.642C22.3286 14.214 22.8216 14 23.3803 14ZM27.6197 18.1975V16.0741H23.3803V18.1975H27.6197Z" fill="#5439DC" fill-opacity="0.9"/>
<path d="M26 6V12H22.8994V9.13574H19.7246V12.1982H21.0977C20.8065 12.3266 20.534 12.5173 20.2812 12.7705C19.8082 13.2445 19.5723 13.8178 19.5723 14.4893V16.0371H16.5508V15.333H13.4492V17.1182C13.1514 17.5331 13 18.0209 13 18.585V33.4521C13 33.6419 13.0181 33.8243 13.0518 34H4V6H26ZM7.10059 27.8018V30.8643H10.2754V27.8018H7.10059ZM7.10059 21.5312V24.667H10.2754V21.5312H7.10059ZM7.10059 15.333V18.4688H10.2754V15.333H7.10059ZM7.10059 9.13574V12.1982H10.2754V9.13574H7.10059ZM13.4492 9.13574V12.1982H16.5508V9.13574H13.4492Z" fill="url(#paint0_linear_30626_75055)"/>
<defs>
<linearGradient id="paint0_linear_30626_75055" x1="23.7083" y1="13.5833" x2="3.57201" y2="26.8391" gradientUnits="userSpaceOnUse">
<stop stop-color="#553CDC"/>
<stop offset="0.5" stop-color="#9D61BE"/>
<stop offset="1" stop-color="#F3AB5F"/>
</linearGradient>
</defs>
</svg>
