<svg width="40" height="40" viewBox="0 0 40 40" fill="none" xmlns="http://www.w3.org/2000/svg">
<path d="M27.0885 9.3168V10.9366H30V14H23C21.3431 14 20 15.3431 20 17H18V34H4V10.9366H6.91146V9.3168C6.91146 8.39118 7.18229 7.61983 7.72396 7.00275C8.31076 6.33425 8.98785 6 9.75521 6H12.6667C13.4792 6 14.1562 6.33425 14.6979 7.00275C15.2847 7.61983 15.5781 8.39118 15.5781 9.3168V10.9366H18.4219V9.3168C18.4219 8.39118 18.6927 7.61983 19.2344 7.00275C19.8212 6.33425 20.5208 6 21.3333 6H24.2448C25.0122 6 25.6667 6.33425 26.2083 7.00275C26.7951 7.61983 27.0885 8.39118 27.0885 9.3168Z" fill="url(#paint0_linear_30626_75047)"/>
<path opacity="0.8" d="M34.2083 19.1736V18.1322C34.2083 17.5372 34.0278 17.0413 33.6667 16.6446C33.3333 16.2149 32.9306 16 32.4583 16H30.6667C30.1667 16 29.7361 16.2149 29.375 16.6446C29.0417 17.0413 28.875 17.5372 28.875 18.1322V19.1736H27.125V18.1322C27.125 17.5372 26.9444 17.0413 26.5833 16.6446C26.25 16.2149 25.8333 16 25.3333 16H23.5417C23.0694 16 22.6528 16.2149 22.2917 16.6446C21.9583 17.0413 21.7917 17.5372 21.7917 18.1322V19.1736H20V34H36V19.1736H34.2083Z" fill="#5439DC" fill-opacity="0.9"/>
<defs>
<linearGradient id="paint0_linear_30626_75047" x1="27.2917" y1="13.5833" x2="6.04271" y2="30.1149" gradientUnits="userSpaceOnUse">
<stop stop-color="#553CDC"/>
<stop offset="0.5" stop-color="#9D61BE"/>
<stop offset="1" stop-color="#F3AB5F"/>
</linearGradient>
</defs>
</svg>
