<svg width="40" height="40" viewBox="0 0 40 40" fill="none" xmlns="http://www.w3.org/2000/svg">
<path d="M18 6C19.9103 6 21.5478 6.68226 22.9123 8.04678C24.2768 9.41131 24.9591 10.5353 24.9591 12.5002C22.501 13.1252 21.876 13.6659 20.626 15.0002C19.376 16.8752 19.376 18.1252 19.376 20.0002C17.4656 20.0002 14.4522 19.3177 13.0877 17.9532C11.7232 16.5887 11.0409 14.9513 11.0409 13.0409C11.0409 11.076 11.7232 9.41131 13.0877 8.04678C14.4522 6.68226 16.0897 6 18 6ZM18 23.5205C20.001 23.7502 20.3723 23.848 22.501 24.5029C21.9179 25.0002 18 26.2502 16.251 27.5002C15.001 28.1252 14.376 29.2242 14.376 30.4795V34H4V30.4795C4 29.2242 4.62768 28.078 5.88304 27.0409C7.1384 25.9493 8.83041 25.1033 10.9591 24.5029C13.1423 23.848 15.4893 23.5205 18 23.5205Z" fill="url(#paint0_linear_30626_75110)"/>
<path opacity="0.8" d="M26 14C27.3645 14 28.5341 14.4873 29.5088 15.462C30.4834 16.4366 30.9708 17.6257 30.9708 19.0292C30.9708 20.3938 30.4834 21.5634 29.5088 22.538C28.5341 23.5127 27.3645 24 26 24C24.6355 24 23.4659 23.5127 22.4912 22.538C21.5166 21.5634 21.0292 20.3938 21.0292 19.0292C21.0292 17.6257 21.5166 16.4366 22.4912 15.462C23.4659 14.4873 24.6355 14 26 14ZM26 26.5146C27.7934 26.5146 29.4503 26.7485 30.9708 27.2164C32.5302 27.6452 33.7583 28.2495 34.655 29.0292C35.5517 29.77 36 30.5887 36 31.4854V34H16V31.4854C16 30.5887 16.4483 29.77 17.345 29.0292C18.2417 28.2495 19.4503 27.6452 20.9708 27.2164C22.5302 26.7485 24.2066 26.5146 26 26.5146Z" fill="#5439DC" fill-opacity="0.9"/>
<defs>
<linearGradient id="paint0_linear_30626_75110" x1="22.7758" y1="13.5833" x2="3.04099" y2="25.9601" gradientUnits="userSpaceOnUse">
<stop stop-color="#553CDC"/>
<stop offset="0.5" stop-color="#9D61BE"/>
<stop offset="1" stop-color="#F3AB5F"/>
</linearGradient>
</defs>
</svg>
