<svg width="32" height="32" viewBox="0 0 32 32" fill="none" xmlns="http://www.w3.org/2000/svg">
<path d="M21.6701 7.45325V8.74912H23.9992V11.1998H18.3992C17.0737 11.1998 15.9992 12.2743 15.9992 13.5998H14.3992V27.1998H3.19922V8.74912H5.52839V7.45325C5.52839 6.71275 5.74505 6.09567 6.17839 5.60201C6.64783 5.06721 7.1895 4.7998 7.80339 4.7998H10.1326C10.7826 4.7998 11.3242 5.06721 11.7576 5.60201C12.227 6.09567 12.4617 6.71275 12.4617 7.45325V8.74912H14.7367V7.45325C14.7367 6.71275 14.9534 6.09567 15.3867 5.60201C15.8562 5.06721 16.4159 4.7998 17.0659 4.7998H19.3951C20.0089 4.7998 20.5326 5.06721 20.9659 5.60201C21.4353 6.09567 21.6701 6.71275 21.6701 7.45325Z" fill="url(#paint0_linear_30626_75051)"/>
<path opacity="0.8" d="M27.3667 15.3386V14.5056C27.3667 14.0296 27.2222 13.6329 26.9333 13.3155C26.6667 12.9717 26.3444 12.7998 25.9667 12.7998H24.5333C24.1333 12.7998 23.7889 12.9717 23.5 13.3155C23.2333 13.6329 23.1 14.0296 23.1 14.5056V15.3386H21.7V14.5056C21.7 14.0296 21.5556 13.6329 21.2667 13.3155C21 12.9717 20.6667 12.7998 20.2667 12.7998H18.8333C18.4556 12.7998 18.1222 12.9717 17.8333 13.3155C17.5667 13.6329 17.4333 14.0296 17.4333 14.5056V15.3386H16V27.1998H28.8V15.3386H27.3667Z" fill="#5439DC" fill-opacity="0.9"/>
<defs>
<linearGradient id="paint0_linear_30626_75051" x1="21.8326" y1="10.8665" x2="4.83339" y2="24.0917" gradientUnits="userSpaceOnUse">
<stop stop-color="#553CDC"/>
<stop offset="0.5" stop-color="#9D61BE"/>
<stop offset="1" stop-color="#F3AB5F"/>
</linearGradient>
</defs>
</svg>
