<svg width="32" height="32" viewBox="0 0 32 32" fill="none" xmlns="http://www.w3.org/2000/svg">
<path opacity="0.8" d="M18.7042 11.2002H22.0958C22.5427 11.2002 22.9239 11.3714 23.2394 11.7138C23.5812 12.0298 23.7521 12.4117 23.7521 12.8595V14.5582H27.1437C27.5906 14.5582 27.9718 14.7294 28.2873 15.0718C28.6291 15.3878 28.8 15.7829 28.8 16.257V25.5014C28.8 25.9755 28.6291 26.3837 28.2873 26.7261C27.9718 27.0422 27.5906 27.2002 27.1437 27.2002H13.6563C13.2094 27.2002 12.815 27.0422 12.4732 26.7261C12.1577 26.3837 12 25.9755 12 25.5014V16.257C12 15.7829 12.1577 15.3878 12.4732 15.0718C12.815 14.7294 13.2094 14.5582 13.6563 14.5582H17.0479V12.8595C17.0479 12.4117 17.2056 12.0298 17.5211 11.7138C17.8629 11.3714 18.2573 11.2002 18.7042 11.2002ZM22.0958 14.5582V12.8595H18.7042V14.5582H22.0958Z" fill="#5439DC" fill-opacity="0.9"/>
<path d="M20.7988 4.7998V9.59961H18.3184V7.30859H15.7793V9.75781H16.8789C16.6455 9.86049 16.4272 10.0129 16.2246 10.2158C15.846 10.5951 15.6563 11.0536 15.6562 11.5908V12.8291H13.2393V12.2666H10.7588V13.6934C10.5201 14.0255 10.3994 14.4165 10.3994 14.8682V26.7617C10.3994 26.9135 10.4134 27.0596 10.4404 27.2002H3.19922V4.7998H20.7988ZM5.67969 22.2412V24.6914H8.21973V22.2412H5.67969ZM5.67969 17.2246V19.7334H8.21973V17.2246H5.67969ZM5.67969 12.2666V14.7744H8.21973V12.2666H5.67969ZM5.67969 7.30859V9.75781H8.21973V7.30859H5.67969ZM10.7588 7.30859V9.75781H13.2393V7.30859H10.7588Z" fill="url(#paint0_linear_30626_75060)"/>
<defs>
<linearGradient id="paint0_linear_30626_75060" x1="18.9655" y1="10.8666" x2="2.85645" y2="21.4708" gradientUnits="userSpaceOnUse">
<stop stop-color="#553CDC"/>
<stop offset="0.5" stop-color="#9D61BE"/>
<stop offset="1" stop-color="#F3AB5F"/>
</linearGradient>
</defs>
</svg>
