<svg width="32" height="32" viewBox="0 0 32 32" fill="none" xmlns="http://www.w3.org/2000/svg">
<path opacity="0.8" d="M18.7042 11.1997H22.0958C22.5427 11.1997 22.9239 11.3709 23.2394 11.7133C23.5812 12.0293 23.7521 12.4112 23.7521 12.859V14.5577H27.1437C27.5906 14.5577 27.9718 14.7289 28.2873 15.0713C28.6291 15.3874 28.8 15.7824 28.8 16.2565V25.5009C28.8 25.975 28.6291 26.3832 28.2873 26.7256C27.9718 27.0417 27.5906 27.1997 27.1437 27.1997H13.6563C13.2094 27.1997 12.815 27.0417 12.4732 26.7256C12.1577 26.3832 12 25.975 12 25.5009V16.2565C12 15.7824 12.1577 15.3874 12.4732 15.0713C12.815 14.7289 13.2094 14.5577 13.6563 14.5577H17.0479V12.859C17.0479 12.4112 17.2056 12.0293 17.5211 11.7133C17.8629 11.3709 18.2573 11.1997 18.7042 11.1997ZM22.0958 14.5577V12.859H18.7042V14.5577H22.0958Z" fill="#5439DC" fill-opacity="0.9"/>
<path d="M3.19922 18.5078C3.19922 19.4022 3.64733 20.2389 4.54395 21.0166C5.44063 21.7555 6.64945 22.3585 8.16992 22.8252C8.88809 23.0222 9.63163 23.1701 10.3994 23.2764V26.7617C10.3994 26.8469 10.4046 26.9301 10.4131 27.0117C9.64045 26.9054 8.89235 26.7568 8.16992 26.5586C6.64945 26.0919 5.44063 25.4889 4.54395 24.75C3.64731 23.9722 3.19922 23.1356 3.19922 22.2412V18.5078ZM3.19922 12.2666C3.19926 13.1609 3.64755 13.9968 4.54395 14.7744C5.44061 15.5133 6.6495 16.1163 8.16992 16.583C8.88812 16.78 9.6316 16.9289 10.3994 17.0352V20.7686C9.63159 20.6623 8.88813 20.5134 8.16992 20.3164C6.64949 19.8497 5.44062 19.2467 4.54395 18.5078C3.64755 17.7302 3.19928 16.8943 3.19922 16V12.2666ZM13.1992 4.7998C14.9926 4.7998 16.6495 5.03333 18.1699 5.5C19.7294 5.92778 20.9578 6.53082 21.8545 7.30859C22.723 8.02436 23.1692 8.83128 23.1963 9.72949C22.9849 9.64446 22.7577 9.59961 22.5137 9.59961H17.5996C17.0634 9.59961 16.5898 9.80511 16.1797 10.2158C15.8011 10.5951 15.6114 11.0536 15.6113 11.5908V13.6299H12.3867C11.8504 13.6299 11.3769 13.8353 10.9668 14.2461C10.8509 14.3622 10.7542 14.4881 10.6738 14.6221C9.80824 14.5152 8.97341 14.3532 8.16992 14.1328C6.64953 13.6662 5.4406 13.0641 4.54395 12.3252C3.64726 11.5474 3.19922 10.7109 3.19922 9.81641C3.19924 8.88324 3.64755 8.04738 4.54395 7.30859C5.44061 6.53083 6.6495 5.92778 8.16992 5.5C9.72938 5.03333 11.4058 4.7998 13.1992 4.7998Z" fill="url(#paint0_linear_30626_75041)"/>
<defs>
<linearGradient id="paint0_linear_30626_75041" x1="21.1133" y1="10.8155" x2="4.39205" y2="23.4282" gradientUnits="userSpaceOnUse">
<stop stop-color="#553CDC"/>
<stop offset="0.5" stop-color="#9D61BE"/>
<stop offset="1" stop-color="#F3AB5F"/>
</linearGradient>
</defs>
</svg>
