<svg width="40" height="40" viewBox="0 0 40 40" fill="none" xmlns="http://www.w3.org/2000/svg">
<path opacity="0.8" d="M10.8096 24.0078C10.1427 24.5879 9.55539 25.2444 9.04688 25.9766C8.01583 27.3829 7.5 28.9062 7.5 30.5469V32H4V29.4238C4 28.4747 4.29635 27.5929 4.88867 26.7793C5.48093 25.9207 6.26034 25.2432 7.22656 24.7461C8.22416 24.2489 9.31535 24 10.5 24C10.6041 24 10.7072 24.004 10.8096 24.0078ZM29.5 24C30.6847 24 31.7601 24.2489 32.7266 24.7461C33.724 25.2432 34.519 25.9207 35.1113 26.7793C35.7037 27.5929 36 28.4747 36 29.4238V32H30.1289V30.5469C30.1289 28.9062 29.6131 27.3829 28.582 25.9766C28.1725 25.3869 27.7064 24.8475 27.1855 24.3564C27.9129 24.1204 28.6839 24 29.5 24ZM10.0508 12.001C10.0293 12.2629 10.0176 12.5291 10.0176 12.7998C10.0176 15.2245 10.878 17.2977 12.5986 19.0186C13.0147 19.4346 13.4519 19.7997 13.9092 20.1152C13.7927 20.258 13.6683 20.3981 13.5332 20.5332C12.5554 21.511 11.3778 22 10 22C8.62222 22 7.44457 21.511 6.4668 20.5332C5.48902 19.5554 5 18.3778 5 17C5 15.6222 5.48902 14.4446 6.4668 13.4668C7.44457 12.489 8.62222 12 10 12C10.017 12 10.0339 12.0008 10.0508 12.001ZM29 12C30.3778 12 31.5554 12.489 32.5332 13.4668C33.511 14.4446 34 15.6222 34 17C34 18.3778 33.511 19.5554 32.5332 20.5332C31.5554 21.511 30.3778 22 29 22C27.6222 22 26.4446 21.511 25.4668 20.5332C25.1201 20.1865 24.8361 19.814 24.6123 19.417C24.7558 19.2893 24.8982 19.1574 25.0371 19.0186C26.7577 17.2977 27.6182 15.2245 27.6182 12.7998C27.6182 12.5934 27.6091 12.3898 27.5967 12.1885C28.0388 12.063 28.5065 12 29 12Z" fill="#5439DC" fill-opacity="0.9"/>
<path d="M19 23C20.6403 23 22.1296 23.3418 23.4678 24.0254C24.849 24.709 25.9494 25.6415 26.7695 26.8223C27.5897 27.9409 28 29.1529 28 30.458V34H10V30.458C10 29.1529 10.4103 27.9409 11.2305 26.8223C12.0506 25.6415 13.1296 24.709 14.4678 24.0254C15.849 23.3418 17.3598 23 19 23ZM19 6C20.9289 6 22.5774 6.68482 23.9463 8.05371C25.3152 9.4226 26 11.0711 26 13C26 14.9289 25.3152 16.5774 23.9463 17.9463C22.5774 19.3152 20.9289 20 19 20C17.0711 20 15.4226 19.3152 14.0537 17.9463C12.6848 16.5774 12 14.9289 12 13C12 11.0711 12.6848 9.4226 14.0537 8.05371C15.4226 6.68482 17.0711 6 19 6Z" fill="url(#paint0_linear_30626_75075)"/>
<defs>
<linearGradient id="paint0_linear_30626_75075" x1="26.125" y1="13.5833" x2="7.82033" y2="23.4424" gradientUnits="userSpaceOnUse">
<stop stop-color="#553CDC"/>
<stop offset="0.5" stop-color="#9D61BE"/>
<stop offset="1" stop-color="#F3AB5F"/>
</linearGradient>
</defs>
</svg>
