<svg width="32" height="32" viewBox="0 0 32 32" fill="none" xmlns="http://www.w3.org/2000/svg">
<path opacity="0.8" d="M8.64648 19.2065C8.11314 19.6705 7.64303 20.1953 7.23633 20.7808C6.4116 21.9057 5.99915 23.1247 5.99902 24.437V25.6001H3.19922V23.5396C3.19922 22.7802 3.4363 22.0742 3.91016 21.4233C4.38397 20.7365 5.00731 20.194 5.78027 19.7964C6.57835 19.3986 7.45169 19.1997 8.39941 19.1997C8.48247 19.1997 8.56477 19.2035 8.64648 19.2065ZM23.5996 19.1997C24.5472 19.1998 25.4076 19.3987 26.1807 19.7964C26.9787 20.1941 27.615 20.7364 28.0889 21.4233C28.5627 22.0742 28.7988 22.7802 28.7988 23.5396V25.6001H24.1025V24.437C24.1024 23.1247 23.6899 21.9056 22.8652 20.7808C22.5376 20.3091 22.1648 19.8776 21.748 19.4849C22.33 19.2961 22.9468 19.1997 23.5996 19.1997ZM8.04004 9.60107C8.0229 9.81047 8.01368 10.0233 8.01367 10.2397C8.01367 12.1796 8.70158 13.8387 10.0781 15.2153C10.4111 15.5483 10.761 15.8409 11.127 16.0933C11.0339 16.2074 10.9342 16.3192 10.8262 16.4272C10.044 17.2094 9.1012 17.6001 7.99902 17.6001C6.89707 17.6001 5.95495 17.2092 5.17285 16.4272C4.39063 15.645 3.99902 14.7023 3.99902 13.6001C3.99902 12.4979 4.39063 11.5552 5.17285 10.7729C5.95495 9.99103 6.89707 9.60014 7.99902 9.6001C8.01272 9.6001 8.02639 9.60095 8.04004 9.60107ZM23.1992 9.6001C24.3014 9.6001 25.2441 9.99073 26.0264 10.7729C26.8086 11.5552 27.1992 12.4979 27.1992 13.6001C27.1992 14.7023 26.8086 15.645 26.0264 16.4272C25.2441 17.2095 24.3014 17.6001 23.1992 17.6001C22.097 17.6001 21.1543 17.2095 20.3721 16.4272C20.0948 16.15 19.8674 15.8522 19.6885 15.5347C19.8033 15.4325 19.9171 15.3265 20.0283 15.2153C21.405 13.8386 22.0938 12.1797 22.0938 10.2397C22.0937 10.0746 22.0862 9.91159 22.0762 9.75049C22.43 9.6502 22.8044 9.6001 23.1992 9.6001Z" fill="#5439DC" fill-opacity="0.9"/>
<path d="M15.2002 18.3994C16.5123 18.3994 17.704 18.6729 18.7744 19.2197C19.8793 19.7666 20.7599 20.5125 21.416 21.457C22.0721 22.3519 22.4004 23.3221 22.4004 24.3662V27.2002H8V24.3662C8 23.3221 8.32826 22.3519 8.98438 21.457C9.64046 20.5126 10.5039 19.7665 11.5742 19.2197C12.6792 18.6729 13.8881 18.3994 15.2002 18.3994ZM15.2002 4.7998C16.7432 4.79985 18.0622 5.34738 19.1572 6.44238C20.2522 7.5374 20.7997 8.85647 20.7998 10.3994C20.7998 11.9425 20.2523 13.2623 19.1572 14.3574C18.0622 15.4524 16.7431 16 15.2002 16C13.6571 16 12.3373 15.4525 11.2422 14.3574C10.1471 13.2623 9.59961 11.9425 9.59961 10.3994C9.5997 8.85656 10.1473 7.53736 11.2422 6.44238C12.3373 5.34727 13.6571 4.7998 15.2002 4.7998Z" fill="url(#paint0_linear_30626_75128)"/>
<defs>
<linearGradient id="paint0_linear_30626_75128" x1="20.9003" y1="10.8666" x2="6.25628" y2="18.7541" gradientUnits="userSpaceOnUse">
<stop stop-color="#553CDC"/>
<stop offset="0.5" stop-color="#9D61BE"/>
<stop offset="1" stop-color="#F3AB5F"/>
</linearGradient>
</defs>
</svg>
