<svg width="32" height="32" viewBox="0 0 32 32" fill="none" xmlns="http://www.w3.org/2000/svg">
<path d="M14.3992 4.7998C15.9275 4.7998 17.2374 5.34561 18.329 6.43723C19.4207 7.52885 19.9665 8.42807 19.9665 10C18 10.5 17.5 10.9326 16.5 12C15.5 13.5 15.5 14.5 15.5 16C13.9717 16 11.561 15.454 10.4694 14.3624C9.37778 13.2708 8.83197 11.9608 8.83197 10.4326C8.83197 8.86062 9.37778 7.52885 10.4694 6.43723C11.561 5.34561 12.871 4.7998 14.3992 4.7998ZM14.3992 18.8162C16 19 16.2971 19.0782 18 19.6021C17.5335 20 14.3992 21 13 22C12 22.5 11.5 23.3791 11.5 24.3834V27.1998H3.19922V24.3834C3.19922 23.3791 3.70136 22.4622 4.70565 21.6326C5.70994 20.7593 7.06355 20.0825 8.76647 19.6021C10.5131 19.0782 12.3906 18.8162 14.3992 18.8162Z" fill="url(#paint0_linear_30626_75106)"/>
<path opacity="0.8" d="M20.7988 11.1997C21.8904 11.1997 22.8261 11.5896 23.6058 12.3693C24.3856 13.149 24.7754 14.1003 24.7754 15.2231C24.7754 16.3147 24.3856 17.2504 23.6058 18.0301C22.8261 18.8098 21.8904 19.1997 20.7988 19.1997C19.7072 19.1997 18.7715 18.8098 17.9918 18.0301C17.2121 17.2504 16.8222 16.3147 16.8222 15.2231C16.8222 14.1003 17.2121 13.149 17.9918 12.3693C18.7715 11.5896 19.7072 11.1997 20.7988 11.1997ZM20.7988 21.2114C22.2335 21.2114 23.5591 21.3985 24.7754 21.7728C26.023 22.1159 27.0055 22.5993 27.7228 23.2231C28.4402 23.8157 28.7988 24.4707 28.7988 25.188V27.1997H12.7988V25.188C12.7988 24.4707 13.1575 23.8157 13.8749 23.2231C14.5922 22.5993 15.5591 22.1159 16.7754 21.7728C18.023 21.3985 19.3641 21.2114 20.7988 21.2114Z" fill="#5439DC" fill-opacity="0.9"/>
<defs>
<linearGradient id="paint0_linear_30626_75106" x1="18.2199" y1="10.8665" x2="2.43201" y2="20.7679" gradientUnits="userSpaceOnUse">
<stop stop-color="#553CDC"/>
<stop offset="0.5" stop-color="#9D61BE"/>
<stop offset="1" stop-color="#F3AB5F"/>
</linearGradient>
</defs>
</svg>
