<svg width="32" height="32" viewBox="0 0 32 32" fill="none" xmlns="http://www.w3.org/2000/svg">
<path d="M12.8203 20.3066V25.1133L16.6543 27.2002H3.19922V24.3838C3.19922 23.3795 3.70177 22.4624 4.70605 21.6328C5.71033 20.7596 7.06373 20.0828 8.7666 19.6025C9.38986 19.4156 10.0299 19.2628 10.6865 19.1426L12.8203 20.3066ZM25.5996 27.2002H23.3447L25.5996 25.9727V27.2002ZM25.5791 24.0498V24.1621H25.5781V24.04C25.5785 24.0433 25.5787 24.0466 25.5791 24.0498ZM14.3994 4.7998C15.9276 4.79985 17.2375 5.34593 18.3291 6.4375C19.4206 7.52909 19.9668 8.86077 19.9668 10.4326C19.9668 10.629 19.9565 10.8216 19.9385 11.0107L11.8799 15.4053C11.3755 15.1436 10.9048 14.7973 10.4697 14.3623C9.37812 13.2707 8.83205 11.9609 8.83203 10.4326C8.83203 8.86069 9.37811 7.52912 10.4697 6.4375C11.5613 5.3459 12.8712 4.7998 14.3994 4.7998Z" fill="url(#paint0_linear_30626_75148)"/>
<path opacity="0.8" d="M19.9992 12.7998L11.1992 17.5998L19.9992 22.3998L27.189 18.4623V24.0123H28.7992V17.5998L19.9992 12.7998ZM14.4196 20.9373V24.1623L19.9992 27.1998L25.5788 24.1623V20.9373L19.9992 24.0123L14.4196 20.9373Z" fill="#5439DC" fill-opacity="0.9"/>
<defs>
<linearGradient id="paint0_linear_30626_75148" x1="23.2662" y1="10.8666" x2="5.99927" y2="25.3335" gradientUnits="userSpaceOnUse">
<stop stop-color="#553CDC"/>
<stop offset="0.5" stop-color="#9D61BE"/>
<stop offset="1" stop-color="#F3AB5F"/>
</linearGradient>
</defs>
</svg>
